<?xml version="1.0" encoding="UTF-8"?>
<svg width="163px" height="212px" viewBox="0 0 163 212" version="1.1" xmlns="http://www.w3.org/2000/svg" xmlns:xlink="http://www.w3.org/1999/xlink">
    <!-- Generator: Sketch 52.2 (67145) - http://www.bohemiancoding.com/sketch -->
    <title>Fill 1704</title>
    <desc>Created with Sketch.</desc>
    <g id="Page-1" stroke="none" stroke-width="1" fill="none" fill-rule="evenodd" opacity="0.16">
        <g id="main" transform="translate(-644.000000, -1033.000000)" fill="#EAEAEA">
            <path d="M664.379373,1034.85747 C665.538209,1035.55586 666.689034,1036.22823 667.829842,1036.8996 C668.305596,1037.17976 668.919569,1037.02167 669.201015,1036.5454 C669.48146,1036.07014 669.323209,1035.4568 668.846453,1035.17565 C667.70264,1034.50227 666.556824,1033.8329 665.413011,1033.14352 C664.938258,1032.85836 664.323284,1033.01145 664.037831,1033.48471 C663.752379,1033.95797 663.90462,1034.57331 664.379373,1034.85747 M672.07457,1039.47303 C673.176316,1040.17341 674.26404,1040.90082 675.334737,1041.67825 C675.782447,1042.00243 676.408439,1041.90337 676.733955,1041.45713 C677.05847,1041.00888 676.959312,1040.38353 676.512604,1040.05935 C675.400842,1039.2529 674.279064,1038.50249 673.150275,1037.78509 C672.683535,1037.48793 672.064554,1037.626 671.767082,1038.09226 C671.470613,1038.55852 671.60783,1039.17686 672.07457,1039.47303 M679.138767,1044.74895 C679.570451,1045.13917 680.000132,1045.54239 680.424805,1045.96162 C680.940623,1046.4699 681.452434,1046.98219 681.960239,1047.49747 C682.347853,1047.89169 682.981858,1047.89669 683.376484,1047.50948 C683.771109,1047.12226 683.777119,1046.48891 683.389505,1046.09469 C682.873687,1045.5714 682.354865,1045.05212 681.832036,1044.53683 C681.385328,1044.09659 680.935615,1043.67335 680.482897,1043.26413 C680.072247,1042.89392 679.439243,1042.92494 679.067654,1043.33517 C678.697067,1043.74539 678.728116,1044.37774 679.138767,1044.74895 M685.377656,1051.09646 C686.273075,1052.07201 687.154472,1053.05955 688.02385,1054.05911 C688.386425,1054.47634 689.019428,1054.52036 689.43709,1054.15816 C689.854752,1053.79596 689.898822,1053.16361 689.536247,1052.74638 C688.655852,1051.73382 687.762436,1050.73326 686.854998,1049.74472 C686.481405,1049.33649 685.8474,1049.30948 685.439754,1049.68268 C685.032108,1050.05589 685.004064,1050.68924 685.377656,1051.09646 M691.223922,1057.85721 C692.062251,1058.88278 692.887559,1059.92035 693.700848,1060.96593 C694.040387,1061.40217 694.670385,1061.48122 695.107077,1061.14203 C695.54377,1060.80284 695.621893,1060.17349 695.282355,1059.73825 C694.460052,1058.67967 693.623726,1057.63108 692.776383,1056.59251 C692.426829,1056.16427 691.795829,1056.10024 691.367149,1056.44943 C690.93847,1056.79862 690.874368,1057.42897 691.223922,1057.85721 M696.6986,1064.93113 C697.482843,1065.99872 698.25707,1067.07532 699.019278,1068.16092 C699.337783,1068.61217 699.962774,1068.72123 700.415491,1068.40405 C700.867207,1068.08588 700.976381,1067.46153 700.658877,1067.01028 C699.887655,1065.91467 699.106417,1064.82607 698.313159,1063.74647 C697.98564,1063.30123 697.358646,1063.20517 696.91294,1063.53235 C696.467233,1063.85853 696.371081,1064.48488 696.6986,1064.93113 M701.825727,1072.25919 C702.552879,1073.3568 703.261002,1074.47141 703.951096,1075.60204 C704.238551,1076.0733 704.855529,1076.22338 705.327277,1075.93522 C705.800026,1075.64807 705.949263,1075.03272 705.661807,1074.56046 C704.959694,1073.40983 704.23755,1072.2742 703.497376,1071.15558 C703.191892,1070.69432 702.570908,1070.56725 702.109176,1070.87242 C701.648446,1071.17659 701.521244,1071.79793 701.825727,1072.25919 M706.43303,1079.88541 C707.069038,1081.04005 707.684012,1082.2097 708.279957,1083.39035 C708.529352,1083.88363 709.131306,1084.08274 709.626091,1083.8336 C710.119873,1083.58446 710.318188,1082.98313 710.068792,1082.48985 C709.462832,1081.28719 708.835838,1080.09853 708.188813,1078.92188 C707.92239,1078.43761 707.313425,1078.26051 706.828657,1078.52666 C706.343888,1078.79281 706.166607,1079.40114 706.43303,1079.88541 M710.41434,1087.85983 C710.956199,1089.0625 711.479028,1090.27717 711.979821,1091.49985 C712.189153,1092.01113 712.77408,1092.25626 713.285892,1092.04715 C713.797703,1091.83803 714.043092,1091.25371 713.83376,1090.74243 C713.323952,1089.49674 712.792109,1088.26205 712.241236,1087.03737 C712.013875,1086.5341 711.419934,1086.30997 710.916135,1086.5361 C710.412337,1086.76322 710.18698,1087.35555 710.41434,1087.85983 M713.757639,1096.12341 C714.204347,1097.3661 714.630022,1098.61679 715.03266,1099.87448 C715.201929,1100.40078 715.764821,1100.69094 716.292658,1100.52184 C716.818491,1100.35375 717.108951,1099.79044 716.940685,1099.26415 C716.530034,1097.98444 716.097348,1096.71073 715.642627,1095.44703 C715.45533,1094.92674 714.881421,1094.65659 714.360595,1094.8427 C713.840771,1095.0298 713.570343,1095.60312 713.757639,1096.12341 M716.440892,1104.62312 C716.788443,1105.89782 717.112958,1107.17753 717.414436,1108.46224 C717.540636,1109.00054 718.07949,1109.33473 718.618344,1109.20866 C719.156196,1109.08259 719.490727,1108.54429 719.364527,1108.00599 C719.058041,1106.69826 718.727517,1105.39454 718.373956,1104.09682 C718.228726,1103.56353 717.677853,1103.24935 717.144007,1103.39443 C716.610161,1103.53952 716.295662,1104.08982 716.440892,1104.62312 M718.435053,1113.30793 C718.677438,1114.60665 718.895784,1115.90937 719.08909,1117.21209 C719.169217,1117.75939 719.679025,1118.1366 720.226893,1118.05556 C720.77376,1117.97451 721.151359,1117.46623 721.07023,1116.91893 C720.873919,1115.59119 720.651567,1114.26446 720.404174,1112.94072 C720.302013,1112.39742 719.779184,1112.03922 719.235322,1112.14028 C718.69146,1112.24134 718.332891,1112.76463 718.435053,1113.30793 M719.697054,1122.12381 C719.828262,1123.43954 719.932427,1124.75427 720.010551,1126.069 C720.043603,1126.6203 720.517354,1127.04153 721.069229,1127.00852 C721.622105,1126.9755 722.042772,1126.50123 722.009719,1125.94993 C721.930594,1124.60919 721.823424,1123.26744 721.690213,1121.9267 C721.636127,1121.3764 721.145349,1120.97517 720.595478,1121.0292 C720.044605,1121.08423 719.642968,1121.57451 719.697054,1122.12381 M720.176814,1131.01073 C720.178817,1131.25487 720.179819,1131.499 720.179819,1131.74214 C720.179819,1132.28044 720.175812,1132.81773 720.165797,1133.35403 C720.156782,1133.89133 720.144763,1134.43063 720.129739,1134.97193 C720.115717,1135.52523 720.551408,1135.98449 721.104284,1135.9995 C721.657161,1136.0145 722.117891,1135.57926 722.132915,1135.02596 C722.146937,1134.47865 722.159957,1133.93235 722.168972,1133.38805 C722.177986,1132.84075 722.182994,1132.29144 722.182994,1131.74214 C722.182994,1131.493 722.181992,1131.24386 722.179989,1130.99472 C722.175983,1130.44242 721.724267,1129.99817 721.171391,1130.00217 C720.617513,1130.00618 720.172808,1130.45743 720.176814,1131.01073 M719.9154,1139.93167 C719.836274,1141.2444 719.737117,1142.56413 719.616927,1143.88687 C719.565846,1144.43717 719.97249,1144.92344 720.523363,1144.97447 C721.073235,1145.0245 721.561008,1144.61927 721.612089,1144.06897 C721.734283,1142.72422 721.834441,1141.38448 721.91557,1140.05274 C721.948622,1139.50044 721.527956,1139.02717 720.976081,1138.99315 C720.423205,1138.96014 719.949454,1139.38037 719.9154,1139.93167 M719.060044,1148.80659 C718.881761,1150.11331 718.678439,1151.41804 718.448074,1152.71676 C718.351922,1153.26106 718.714496,1153.78035 719.25936,1153.8764 C719.804224,1153.97345 720.324047,1153.61025 720.4202,1153.06595 C720.656575,1151.73921 720.862902,1150.40848 721.044189,1149.07674 C721.119308,1148.52944 720.7357,1148.02516 720.187832,1147.95012 C719.638962,1147.87607 719.134161,1148.25929 719.060044,1148.80659 M717.447488,1157.55444 C717.142004,1158.83715 716.80547,1160.10985 716.434883,1161.36755 C716.278635,1161.89784 716.583118,1162.45315 717.112958,1162.60924 C717.643799,1162.76532 718.200682,1162.46215 718.356929,1161.93186 C718.737533,1160.63814 719.08308,1159.33242 719.396577,1158.01669 C719.524781,1157.47939 719.192254,1156.9401 718.653399,1156.81202 C718.115547,1156.68495 717.575691,1157.01714 717.447488,1157.55444 M714.872406,1166.03513 C714.40767,1167.26381 713.903871,1168.47449 713.360009,1169.66114 C713.129644,1170.16342 713.350995,1170.75675 713.853792,1170.98688 C714.356589,1171.217 714.95053,1170.99588 715.181897,1170.4936 C715.744789,1169.26392 716.265615,1168.01223 716.746377,1166.74253 C716.941686,1166.22524 716.680272,1165.64792 716.163453,1165.45281 C715.645632,1165.2577 715.067716,1165.51785 714.872406,1166.03513 M711.112447,1174.01455 C710.45841,1175.14318 709.759302,1176.24379 709.012118,1177.31238 C708.695616,1177.76563 708.806792,1178.38998 709.260511,1178.70615 C709.71423,1179.02233 710.339221,1178.91127 710.655723,1178.45802 C711.434958,1177.3404 712.164114,1176.19276 712.846195,1175.01711 C713.123634,1174.53884 712.959374,1173.92651 712.481617,1173.64935 C712.002858,1173.3722 711.389886,1173.53629 711.112447,1174.01455 M705.998341,1181.14851 C705.142985,1182.11704 704.23755,1183.05056 703.280032,1183.94505 C702.875391,1184.32226 702.854357,1184.95561 703.232957,1185.35884 C703.610556,1185.76306 704.244561,1185.78407 704.648201,1185.40686 C705.653794,1184.46734 706.603299,1183.4878 707.49972,1182.47324 C707.8653,1182.05901 707.826238,1181.42666 707.411581,1181.06046 C706.996923,1180.69525 706.36392,1180.73528 705.998341,1181.14951 L705.998341,1181.14851 M699.523077,1187.05778 C698.479423,1187.82821 697.396707,1188.56361 696.280938,1189.259 C695.811193,1189.55116 695.667966,1190.1685 695.96043,1190.63776 C696.252894,1191.10602 696.870873,1191.2491 697.340618,1190.95694 C698.501458,1190.23354 699.628244,1189.46911 700.713965,1188.66567 C701.158669,1188.33749 701.252819,1187.71114 700.923296,1187.26689 C700.594776,1186.82265 699.967782,1186.7286 699.523077,1187.05778 M691.999151,1191.64532 C690.828295,1192.22464 689.633401,1192.75994 688.420479,1193.24521 C687.906664,1193.45132 687.658271,1194.03364 687.863596,1194.54693 C688.069923,1195.06021 688.652847,1195.30835 689.16566,1195.10324 C690.428662,1194.59796 691.671632,1194.04065 692.889563,1193.43731 C693.384347,1193.19218 693.587669,1192.59184 693.341279,1192.09657 C693.09589,1191.6013 692.494937,1191.39918 691.999151,1191.64532 M683.788136,1194.83108 C682.527138,1195.19128 681.257125,1195.49345 679.984107,1195.73559 C679.440245,1195.83964 679.084681,1196.36293 679.187845,1196.90623 C679.291008,1197.44853 679.81584,1197.80473 680.358701,1197.70168 C681.692815,1197.44753 683.02092,1197.13136 684.338008,1196.75615 C684.869851,1196.60407 685.177338,1196.05076 685.026099,1195.51947 C684.874859,1194.98817 684.319979,1194.68 683.788136,1194.83108 M675.148442,1196.35593 C674.380224,1196.40496 673.616013,1196.42997 672.853805,1196.42997 C672.32096,1196.42997 671.790119,1196.41796 671.261281,1196.39295 C670.708404,1196.36694 670.239661,1196.79317 670.21362,1197.34548 C670.187579,1197.89678 670.614255,1198.36604 671.16613,1198.39206 C671.728021,1198.41807 672.289911,1198.43108 672.853805,1198.43108 C673.659081,1198.43108 674.467363,1198.40506 675.276645,1198.35304 C675.829522,1198.31702 676.247184,1197.84075 676.212128,1197.28945 C676.176071,1196.73814 675.700317,1196.31991 675.148442,1196.35593 M666.45967,1195.79562 C665.195666,1195.53447 663.955701,1195.19028 662.744782,1194.75704 C662.223956,1194.57094 661.651048,1194.84209 661.464753,1195.36238 C661.278458,1195.88267 661.549888,1196.45498 662.070713,1196.64109 C663.371776,1197.10635 664.702885,1197.47555 666.053025,1197.75571 C666.594884,1197.86677 667.124724,1197.51957 667.236902,1196.97827 C667.34908,1196.43697 667.001529,1195.90768 666.45967,1195.79562 M658.388877,1192.72992 C657.297147,1192.09257 656.242475,1191.36517 655.226865,1190.54371 C654.797184,1190.19652 654.167186,1190.26255 653.818633,1190.69179 C653.470081,1191.12103 653.536186,1191.75138 653.965867,1192.09857 C655.0596,1192.98406 656.199407,1193.7685 657.376272,1194.45688 C657.853028,1194.73603 658.467001,1194.57594 658.746444,1194.09968 C659.025887,1193.62242 658.865633,1193.01008 658.388877,1192.72992 M651.777398,1187.18985 C651.045237,1186.33938 650.343125,1185.42187 649.676067,1184.43533 C649.599947,1184.32426 649.526831,1184.2122 649.453715,1184.10214 C649.149232,1183.63989 648.528248,1183.51181 648.066516,1183.81598 C647.603783,1184.11915 647.475579,1184.73949 647.77906,1185.20175 C647.857184,1185.31882 647.93631,1185.43688 648.016437,1185.55595 C648.725561,1186.60553 649.474748,1187.58407 650.259993,1188.49558 C650.620564,1188.91481 651.252566,1188.96183 651.672231,1188.60163 C652.090895,1188.24043 652.138971,1187.60908 651.777398,1187.18985 M647.172098,1179.8758 C646.648268,1178.6191 646.290701,1177.41544 646.077363,1176.2608 C645.977204,1175.7175 645.454376,1175.3583 644.910514,1175.45835 C644.366652,1175.55841 644.007082,1176.0807 644.10724,1176.624 C644.347621,1177.92772 644.749258,1179.26846 645.323168,1180.64523 C645.535504,1181.15551 646.121433,1181.39664 646.632243,1181.18453 C647.143052,1180.97241 647.384435,1180.38608 647.172098,1179.8758 M645.991227,1171.63123 C646.185535,1170.39755 646.552116,1169.2199 647.070938,1168.08927 C647.301303,1167.58699 647.079952,1166.99266 646.578157,1166.76254 C646.07536,1166.53241 645.480417,1166.75253 645.250052,1167.25481 C644.660117,1168.53952 644.235444,1169.89727 644.01209,1171.32206 C643.926955,1171.86736 644.300547,1172.37965 644.846412,1172.4647 C645.393279,1172.55074 645.906092,1172.17754 645.991227,1171.63123 M649.630996,1164.14209 C650.435271,1163.19656 651.347717,1162.29206 652.349304,1161.43158 C652.76897,1161.07138 652.816044,1160.44003 652.455473,1160.0208 C652.094901,1159.60157 651.461898,1159.55454 651.042233,1159.91474 C649.972537,1160.83525 648.98397,1161.81079 648.104576,1162.84737 C647.746008,1163.2686 647.798091,1163.89995 648.219759,1164.25715 C648.641427,1164.61535 649.273429,1164.56332 649.630996,1164.14209 M656.257499,1158.54999 C657.340215,1157.8576 658.475014,1157.20224 659.642865,1156.5849 C660.13164,1156.32676 660.318937,1155.72142 660.060527,1155.23315 C659.802117,1154.74488 659.196157,1154.55778 658.707382,1154.81592 C657.49446,1155.45627 656.312586,1156.13865 655.176786,1156.86505 C654.711048,1157.16322 654.575834,1157.78256 654.874307,1158.24682 C655.17278,1158.71208 655.791761,1158.84815 656.257499,1158.54999 M664.087911,1154.47673 C665.306843,1153.95644 666.536792,1153.47418 667.761734,1153.02893 C668.281558,1152.83982 668.548982,1152.26551 668.359682,1151.74722 C668.170382,1151.22793 667.596472,1150.95978 667.076648,1151.14889 C665.820657,1151.60514 664.556654,1152.10041 663.301664,1152.63671 C662.792858,1152.85383 662.556483,1153.44216 662.773828,1153.94944 C662.991172,1154.45772 663.580106,1154.69385 664.087911,1154.47673 M672.457176,1151.48407 C672.790705,1151.38502 673.12223,1151.28897 673.451753,1151.19591 C674.387236,1150.93177 675.32372,1150.69364 676.262207,1150.48052 C676.801062,1150.35845 677.139598,1149.82215 677.017404,1149.28385 C676.894209,1148.74456 676.35836,1148.40737 675.818504,1148.52944 C674.845963,1148.74956 673.875424,1148.9967 672.904886,1149.27085 C672.568353,1149.3659 672.229816,1149.46395 671.887273,1149.56601 C671.357433,1149.7231 671.054954,1150.27941 671.212203,1150.8097 C671.369452,1151.33899 671.926335,1151.64116 672.457176,1151.48407 M681.094867,1149.60903 C682.397933,1149.43194 683.702,1149.30186 685.006067,1149.21582 C685.557942,1149.1788 685.976605,1148.70153 685.939546,1148.15023 C685.902488,1147.59892 685.425732,1147.18169 684.873857,1147.21871 C683.524719,1147.30776 682.174579,1147.44283 680.82544,1147.62594 C680.277572,1147.69998 679.892962,1148.20426 679.968081,1148.75156 C680.041197,1149.29886 680.545997,1149.68308 681.094867,1149.60903 M689.92286,1149.09175 C691.235941,1149.11076 692.548021,1149.17279 693.857096,1149.27185 C694.408971,1149.31387 694.890735,1148.90164 694.932801,1148.35034 C694.974868,1147.80003 694.562214,1147.31877 694.010339,1147.27674 C692.661201,1147.17369 691.308056,1147.11065 689.953909,1147.09064 C689.400031,1147.08163 688.945311,1147.52288 688.937298,1148.07619 C688.928284,1148.62849 689.369984,1149.08274 689.92286,1149.09175 M698.753858,1149.82515 C700.052917,1150.01726 701.348971,1150.24639 702.641019,1150.50853 C703.18388,1150.61859 703.711716,1150.2684 703.821891,1149.7261 C703.932065,1149.1848 703.58151,1148.65651 703.039651,1148.54645 C701.714551,1148.2783 700.384442,1148.04317 699.049326,1147.84506 C698.501458,1147.76401 697.992651,1148.14122 697.910521,1148.68752 C697.829392,1149.23483 698.206991,1149.74311 698.753858,1149.82515 M707.449641,1151.63816 C708.720656,1151.97635 709.987664,1152.34555 711.247661,1152.74177 C711.774496,1152.90786 712.337388,1152.6157 712.503652,1152.08841 C712.669915,1151.56112 712.37645,1150.99981 711.848614,1150.83371 C710.561573,1150.42849 709.267522,1150.05128 707.965459,1149.70409 C707.431612,1149.56201 706.882742,1149.87918 706.739515,1150.41348 C706.59729,1150.94678 706.914793,1151.49508 707.449641,1151.63816 M715.92808,1154.34866 C717.166042,1154.80892 718.395991,1155.29218 719.616927,1155.79846 C720.127736,1156.00958 720.713665,1155.76745 720.926002,1155.25716 C721.137337,1154.74688 720.894952,1154.16056 720.384143,1153.94944 C719.141173,1153.43415 717.888187,1152.94188 716.626186,1152.47262 C716.108365,1152.28051 715.531451,1152.54466 715.338145,1153.06195 C715.14584,1153.58023 715.410259,1154.15655 715.92808,1154.34866 M724.156121,1157.79357 C725.357025,1158.35288 726.548914,1158.9302 727.728784,1159.52453 C728.222567,1159.77367 728.825523,1159.57556 729.073916,1159.08128 C729.323312,1158.58801 729.123996,1157.98668 728.630213,1157.73754 C727.432314,1157.1342 726.222397,1156.54788 725.001461,1155.97956 C724.499666,1155.74643 723.903721,1155.96355 723.670351,1156.46483 C723.436982,1156.96511 723.654326,1157.56144 724.156121,1157.79357 M732.122749,1161.83881 C732.578471,1162.08895 733.03219,1162.34109 733.483906,1162.59623 C734.181011,1162.98845 734.872107,1163.39267 735.557193,1163.8059 C736.029942,1164.09206 736.645918,1163.93997 736.932372,1163.46771 C737.218826,1162.99445 737.066585,1162.38011 736.593836,1162.09395 C735.891723,1161.66972 735.182599,1161.25549 734.467465,1160.85326 C734.00974,1160.59512 733.550011,1160.33898 733.088279,1160.08484 C732.603511,1159.81869 731.994546,1159.99579 731.728123,1160.48006 C731.461701,1160.96432 731.637981,1161.57266 732.122749,1161.83881 M739.707772,1166.48438 C740.792491,1167.2288 741.863188,1167.99922 742.920864,1168.79266 C743.363566,1169.12384 743.991562,1169.0348 744.323087,1168.59255 C744.655614,1168.15031 744.565471,1167.52296 744.123771,1167.19177 C743.045061,1166.38333 741.951328,1165.59689 740.841569,1164.83447 C740.385846,1164.5223 739.762859,1164.63736 739.449362,1165.09261 C739.135865,1165.54786 739.251048,1166.17121 739.707772,1166.48438 M746.810029,1171.85636 C747.82664,1172.69582 748.832234,1173.5553 749.825809,1174.43179 C750.240466,1174.79699 750.87347,1174.75797 751.239049,1174.34374 C751.60563,1173.92951 751.566568,1173.29716 751.151911,1172.93195 C750.142311,1172.04146 749.120691,1171.16798 748.086051,1170.3135 C747.659375,1169.96131 747.028375,1170.02134 746.675816,1170.44758 C746.323257,1170.87281 746.383353,1171.50416 746.810029,1171.85636 M753.48561,1177.78264 C754.445131,1178.69215 755.394636,1179.61666 756.335127,1180.55218 C756.726747,1180.94239 757.360752,1180.94139 757.751371,1180.55017 C758.141991,1180.15896 758.140989,1179.52561 757.749368,1179.13539 C756.79786,1178.18887 755.837338,1177.25235 754.864796,1176.33084 C754.463159,1175.95063 753.829155,1175.96664 753.448551,1176.36786 C753.066946,1176.76808 753.083973,1177.40143 753.48561,1177.78264 M759.811637,1184.10815 C760.72809,1185.06868 761.635528,1186.03821 762.534954,1187.01375 C762.909547,1187.41998 763.543552,1187.44599 763.950197,1187.07179 C764.356841,1186.69758 764.383884,1186.06423 764.008289,1185.658 C763.101852,1184.67446 762.186401,1183.69692 761.261936,1182.72838 C760.880331,1182.32816 760.246326,1182.31215 759.845691,1182.69336 C759.446058,1183.07457 759.430032,1183.70792 759.811637,1184.10815 M765.881258,1190.7068 C766.767663,1191.70035 767.648058,1192.6989 768.522444,1193.69746 C768.88602,1194.11369 769.519024,1194.15671 769.935684,1193.79251 C770.352345,1193.42931 770.394411,1192.79696 770.030835,1192.38073 C769.152443,1191.37717 768.269042,1190.37462 767.37763,1189.37606 C767.009045,1188.96283 766.376042,1188.92681 765.963388,1189.29402 C765.549732,1189.66122 765.513675,1190.29457 765.881258,1190.7068 M771.794631,1197.47055 C772.667013,1198.48311 773.53539,1199.49467 774.398758,1200.50223 C774.75933,1200.92246 775.391332,1200.97149 775.810997,1200.61129 C776.231664,1200.25209 776.27974,1199.62074 775.92017,1199.20151 C775.0558,1198.19295 774.187423,1197.18039 773.313037,1196.16482 C772.951464,1195.74659 772.319463,1195.69857 771.899797,1196.05977 C771.481134,1196.41997 771.433058,1197.05131 771.794631,1197.47055 M777.655921,1204.29733 L777.659927,1204.30233 C778.524297,1205.30689 779.378652,1206.31845 780.223992,1207.33801 C780.57655,1207.76425 781.207551,1207.82328 781.634227,1207.47109 C782.059902,1207.11889 782.118995,1206.48854 781.766436,1206.06231 C780.914085,1205.03374 780.051719,1204.01117 779.179336,1202.99761 L779.175329,1202.99261 C778.813756,1202.57437 778.181755,1202.52635 777.762089,1202.88655 C777.343426,1203.24675 777.29535,1203.8781 777.655921,1204.29733 M783.352951,1211.20616 C784.175254,1212.24673 784.988544,1213.29531 785.791817,1214.3509 C786.126347,1214.79114 786.754342,1214.87619 787.195041,1214.542 C787.63574,1214.20782 787.720874,1213.58047 787.386344,1213.14023 C786.57606,1212.07464 785.75576,1211.01705 784.925444,1209.96547 C784.581899,1209.53223 783.952902,1209.45819 783.518213,1209.80038 C783.084526,1210.14257 783.010408,1210.77192 783.352951,1211.20616 M788.758519,1218.34511 C789.537754,1219.41871 790.306974,1220.4993 791.066177,1221.58691 C791.382679,1222.04016 792.007669,1222.15122 792.461388,1221.83504 C792.915108,1221.51887 793.026284,1220.89552 792.709782,1220.44227 C791.943568,1219.34466 791.167337,1218.25406 790.380089,1217.17046 C790.056577,1216.72321 789.429583,1216.62316 788.981873,1216.94734 C788.534164,1217.27152 788.434005,1217.89686 788.758519,1218.34511 M793.86962,1225.69818 C794.604786,1226.8028 795.329935,1227.91341 796.04607,1229.03003 C796.344543,1229.49629 796.963524,1229.63136 797.429263,1229.3342 C797.896002,1229.03603 798.031217,1228.41669 797.733745,1227.95143 C797.011601,1226.82481 796.27944,1225.70419 795.537264,1224.58957 C795.23178,1224.12931 794.609794,1224.00425 794.149063,1224.31041 C793.688333,1224.61658 793.563135,1225.23793 793.86962,1225.69818 M798.684252,1233.24937 C799.375347,1234.38099 800.057428,1235.51962 800.728492,1236.66426 C801.008937,1237.14052 801.621908,1237.30061 802.099665,1237.02146 C802.576421,1236.7413 802.736675,1236.12896 802.457232,1235.6517 C801.779157,1234.49806 801.092068,1233.34942 800.394963,1232.20679 C800.106506,1231.73553 799.49053,1231.58645 799.017781,1231.8736 C798.546033,1232.16176 798.396796,1232.7771 798.684252,1233.24937 M803.202413,1240.98165 C803.849439,1242.13929 804.48745,1243.30294 805.115446,1244.47258 C805.37686,1244.95985 805.983822,1245.14195 806.471595,1244.88081 C806.959368,1244.61966 807.142659,1244.01333 806.880243,1243.52706 C806.24724,1242.34741 805.60422,1241.17376 804.951185,1240.00611 C804.681758,1239.52384 804.071791,1239.35075 803.589026,1239.6199 C803.106261,1239.89004 802.932986,1240.49938 803.202413,1240.98165" id="Fill-1704"></path>
        </g>
    </g>
</svg>