<?xml version="1.0" encoding="UTF-8"?>
<svg width="108px" height="124px" viewBox="0 0 108 124" version="1.1" xmlns="http://www.w3.org/2000/svg" xmlns:xlink="http://www.w3.org/1999/xlink">
    <!-- Generator: Sketch 52.2 (67145) - http://www.bohemiancoding.com/sketch -->
    <title>Fill 2078</title>
    <desc>Created with Sketch.</desc>
    <g id="Page-1" stroke="none" stroke-width="1" fill="none" fill-rule="evenodd" opacity="0.16">
        <g id="main" transform="translate(-922.000000, -1459.000000)" fill="#EAEAEA">
            <g id="Group-19" transform="translate(0.000000, 1052.000000)">
                <g id="Group-15" transform="translate(100.000000, 0.000000)">
                    <path d="M928.390811,410.622972 C928.450811,411.869972 928.480811,413.090972 928.480811,414.296972 C928.480811,414.392972 928.480811,414.487972 928.480811,414.582972 C928.470811,415.134972 928.920811,415.584972 929.470811,415.586972 C930.020811,415.588972 930.470811,415.142972 930.480811,414.590972 C930.480811,414.492972 930.480811,414.394972 930.480811,414.296972 C930.480811,413.057972 930.450811,411.806972 930.390811,410.532972 C930.360811,409.980972 929.900811,409.553972 929.340811,409.578972 C928.790811,409.603972 928.370811,410.071972 928.390811,410.622972 M928.280811,419.513972 C928.170811,420.817972 928.030811,422.118972 927.840811,423.430972 C927.760811,423.977972 928.140811,424.484972 928.680811,424.564972 C929.230811,424.643972 929.740811,424.265972 929.820811,423.719972 C930.010811,422.363972 930.160811,421.018972 930.270811,419.671972 C930.310811,419.120972 929.900811,418.638972 929.350811,418.595972 C928.800811,418.551972 928.320811,418.962972 928.280811,419.513972 M926.930811,428.276972 C926.640811,429.526972 926.310811,430.798972 925.940811,432.101972 C925.790811,432.632972 926.090811,433.186972 926.620811,433.339972 C927.150811,433.493972 927.710811,433.186972 927.860811,432.656972 C928.250811,431.318972 928.580811,430.009972 928.880811,428.721972 C929.000811,428.182972 928.660811,427.646972 928.130811,427.523972 C927.590811,427.400972 927.050811,427.737972 926.930811,428.276972 M924.420811,436.817972 C923.990811,438.064972 923.530811,439.313972 923.060811,440.562972 C922.870811,441.079972 923.130811,441.655972 923.650811,441.850972 C924.160811,442.045972 924.740811,441.784972 924.930811,441.267972 C925.410811,440.003972 925.870811,438.739972 926.310811,437.477972 C926.490811,436.955972 926.220811,436.385972 925.700811,436.202972 C925.170811,436.021972 924.600811,436.296972 924.420811,436.817972 M921.230811,445.194972 C920.730811,446.418972 920.200811,447.638972 919.660811,448.853972 C919.440811,449.357972 919.660811,449.948972 920.170811,450.173972 C920.670811,450.398972 921.260811,450.171972 921.490811,449.667972 C922.040811,448.435972 922.570811,447.198972 923.080811,445.958972 C923.290811,445.448972 923.050811,444.863972 922.540811,444.652972 C922.030811,444.441972 921.440811,444.683972 921.230811,445.194972 M917.560811,453.362972 C916.970811,454.554972 916.370811,455.737972 915.750811,456.910972 C915.500811,457.398972 915.680811,458.003972 916.170811,458.261972 C916.660811,458.518972 917.270811,458.331972 917.520811,457.843972 C918.150811,456.652972 918.760811,455.451972 919.350811,454.241972 C919.600811,453.744972 919.390811,453.146972 918.890811,452.903972 C918.400811,452.660972 917.800811,452.865972 917.560811,453.362972 M913.350811,461.258972 C912.680811,462.406972 911.990811,463.540972 911.290811,464.657972 C910.990811,465.125972 911.130811,465.742972 911.600811,466.037972 C912.070811,466.331972 912.680811,466.192972 912.980811,465.724972 C913.700811,464.586972 914.400811,463.431972 915.070811,462.263972 C915.350811,461.786972 915.190811,461.174972 914.710811,460.896972 C914.240811,460.618972 913.620811,460.780972 913.350811,461.258972 M908.540811,468.790972 C907.890811,469.716972 907.230811,470.627972 906.550811,471.521972 C906.430811,471.677972 906.320811,471.832972 906.200811,471.988972 C905.860811,472.425972 905.940811,473.053972 906.380811,473.390972 C906.820811,473.727972 907.440811,473.646972 907.780811,473.208972 C907.900811,473.048972 908.030811,472.889972 908.150811,472.728972 C908.840811,471.814972 909.520811,470.883972 910.180811,469.939972 C910.490811,469.486972 910.390811,468.863972 909.930811,468.546972 C909.480811,468.229972 908.860811,468.338972 908.540811,468.791972 L908.540811,468.790972 M903.040811,475.789972 C902.170811,476.766972 901.260811,477.725972 900.330811,478.660972 C899.940811,479.050972 899.940811,479.683972 900.330811,480.074972 C900.720811,480.465972 901.350811,480.466972 901.740811,480.075972 C902.710811,479.113972 903.640811,478.126972 904.530811,477.121972 C904.900811,476.709972 904.870811,476.077972 904.450811,475.709972 C904.040811,475.341972 903.410811,475.377972 903.040811,475.790972 L903.040811,475.789972 M896.710811,482.017972 C895.710811,482.875972 894.690811,483.703972 893.640811,484.497972 C893.200811,484.830972 893.110811,485.457972 893.440811,485.898972 C893.780811,486.338972 894.400811,486.425972 894.840811,486.092972 C895.930811,485.272972 896.980811,484.418972 898.010811,483.533972 C898.430811,483.173972 898.480811,482.542972 898.120811,482.123972 C897.760811,481.704972 897.130811,481.657972 896.710811,482.017972 M889.590811,487.304972 C888.480811,488.008972 887.340811,488.670972 886.190811,489.285972 C885.700811,489.545972 885.520811,490.151972 885.780811,490.638972 C886.040811,491.126972 886.640811,491.310972 887.130811,491.050972 C888.330811,490.410972 889.500811,489.724972 890.660811,488.995972 C891.120811,488.700972 891.260811,488.082972 890.970811,487.616972 C890.670811,487.148972 890.060811,487.009972 889.590811,487.304972 M881.750811,491.377972 C880.530811,491.875972 879.300811,492.318972 878.060811,492.701972 C877.530811,492.864972 877.230811,493.424972 877.400811,493.952972 C877.560811,494.480972 878.120811,494.775972 878.650811,494.613972 C879.950811,494.211972 881.240811,493.748972 882.500811,493.228972 C883.020811,493.019972 883.260811,492.435972 883.050811,491.924972 C882.840811,491.413972 882.260811,491.168972 881.750811,491.377972 M873.310811,493.856972 C872.090811,494.072972 870.790811,494.250972 869.420811,494.372972 C868.870811,494.421972 868.470811,494.907972 868.520811,495.456972 C868.570811,496.007972 869.050811,496.413972 869.600811,496.364972 C871.020811,496.237972 872.390811,496.052972 873.660811,495.824972 C874.200811,495.727972 874.570811,495.208972 874.470811,494.664972 C874.370811,494.121972 873.850811,493.758972 873.310811,493.856972 M864.530811,494.548972 C863.230811,494.525972 861.920811,494.442972 860.620811,494.292972 C860.070811,494.228972 859.580811,494.621972 859.510811,495.170972 C859.450811,495.718972 859.840811,496.214972 860.390811,496.278972 C861.760811,496.437972 863.130811,496.523972 864.490811,496.548972 C865.040811,496.558972 865.500811,496.119972 865.510811,495.566972 C865.520811,495.014972 865.080811,494.559972 864.530811,494.548972 M855.850811,493.381972 C854.590811,493.033972 853.380811,492.601972 852.240811,492.074972 C851.740811,491.843972 851.140811,492.061972 850.910811,492.563972 C850.680811,493.064972 850.900811,493.658972 851.400811,493.890972 C852.650811,494.468972 853.970811,494.936972 855.320811,495.309972 C855.850811,495.456972 856.400811,495.143972 856.550811,494.611972 C856.700811,494.079972 856.380811,493.528972 855.850811,493.381972 M848.250811,489.554972 C847.310811,488.745972 846.470811,487.824972 845.770811,486.775972 C845.460811,486.316972 844.840811,486.193972 844.380811,486.501972 C843.920811,486.809972 843.800811,487.430972 844.110811,487.889972 C844.920811,489.096972 845.880811,490.153972 846.950811,491.072972 C847.370811,491.431972 848.000811,491.383972 848.360811,490.964972 C848.720811,490.544972 848.670811,489.913972 848.250811,489.554972 M844.240811,482.619972 C844.230811,482.483972 844.230811,482.349972 844.230811,482.215972 C844.230811,481.180972 844.470811,480.182972 844.910811,479.205972 C845.140811,478.703972 844.920811,478.110972 844.420811,477.881972 C843.910811,477.652972 843.320811,477.874972 843.090811,478.377972 C842.540811,479.576972 842.230811,480.867972 842.230811,482.215972 C842.230811,482.389972 842.230811,482.564972 842.240811,482.740972 C842.280811,483.291972 842.750811,483.711972 843.300811,483.678972 C843.850811,483.644972 844.270811,483.170972 844.240811,482.619972 M847.660811,475.516972 C848.550811,474.670972 849.570811,473.876972 850.670811,473.152972 C851.130811,472.848972 851.260811,472.229972 850.960811,471.767972 C850.650811,471.306972 850.030811,471.178972 849.570811,471.482972 C848.390811,472.261972 847.270811,473.124972 846.280811,474.069972 C845.880811,474.450972 845.870811,475.083972 846.250811,475.483972 C846.630811,475.882972 847.260811,475.898972 847.660811,475.516972 M854.930811,470.838972 C856.160811,470.290972 857.400811,469.831972 858.570811,469.474972 C859.100811,469.313972 859.400811,468.754972 859.240811,468.226972 C859.080811,467.697972 858.520811,467.399972 857.990811,467.560972 C856.730811,467.942972 855.420811,468.429972 854.120811,469.011972 C853.610811,469.236972 853.390811,469.827972 853.610811,470.332972 C853.840811,470.836972 854.430811,471.063972 854.930811,470.838972 M863.280811,468.557972 C864.490811,468.452972 865.710811,468.401972 866.930811,468.401972 L867.190811,468.402972 C867.750811,468.405972 868.200811,467.960972 868.200811,467.408972 C868.200811,466.856972 867.760811,466.405972 867.210811,466.402972 C867.110811,466.401972 867.020811,466.401972 866.930811,466.401972 C865.650811,466.401972 864.380811,466.455972 863.110811,466.564972 C862.560811,466.612972 862.150811,467.096972 862.200811,467.646972 C862.250811,468.197972 862.730811,468.604972 863.280811,468.557972 M872.080811,468.701972 C873.380811,468.850972 874.680811,469.055972 875.960811,469.312972 C876.500811,469.421972 877.030811,469.070972 877.140811,468.528972 C877.250811,467.987972 876.900811,467.459972 876.350811,467.351972 C875.010811,467.083972 873.670811,466.870972 872.310811,466.714972 C871.760811,466.650972 871.270811,467.044972 871.200811,467.593972 C871.140811,468.141972 871.540811,468.637972 872.080811,468.701972 M880.720811,470.515972 C881.980811,470.899972 883.210811,471.331972 884.430811,471.811972 C884.950811,472.013972 885.530811,471.760972 885.730811,471.246972 C885.930811,470.732972 885.680811,470.151972 885.170811,469.949972 C883.900811,469.451972 882.610811,469.001972 881.310811,468.603972 C880.780811,468.441972 880.220811,468.738972 880.060811,469.266972 C879.900811,469.795972 880.190811,470.354972 880.720811,470.515972 M888.920811,473.827972 C890.090811,474.423972 891.230811,475.063972 892.350811,475.746972 C892.820811,476.034972 893.430811,475.886972 893.720811,475.414972 C894.010811,474.943972 893.860811,474.328972 893.390811,474.040972 C892.230811,473.330972 891.040811,472.664972 889.820811,472.045972 C889.330811,471.794972 888.730811,471.990972 888.480811,472.482972 C888.230811,472.974972 888.420811,473.576972 888.920811,473.827972 M896.400811,478.514972 C897.150811,479.081972 897.880811,479.669972 898.580811,480.276972 C898.870811,480.519972 899.150811,480.765972 899.420811,481.014972 C899.830811,481.386972 900.460811,481.356972 900.830811,480.948972 C901.200811,480.539972 901.170811,479.907972 900.770811,479.535972 C900.480811,479.273972 900.190811,479.014972 899.890811,478.758972 C899.150811,478.124972 898.390811,477.512972 897.610811,476.921972 C897.170811,476.587972 896.540811,476.673972 896.210811,477.113972 C895.880811,477.552972 895.960811,478.180972 896.400811,478.514972 M902.800811,484.525972 C903.650811,485.530972 904.430811,486.569972 905.150811,487.639972 C905.460811,488.097972 906.080811,488.217972 906.540811,487.909972 C907.000811,487.600972 907.120811,486.978972 906.810811,486.520972 C906.050811,485.392972 905.220811,484.296972 904.330811,483.236972 C903.980811,482.814972 903.340811,482.760972 902.920811,483.116972 C902.500811,483.472972 902.450811,484.102972 902.800811,484.525972 M907.610811,491.853972 C908.190811,493.019972 908.710811,494.214972 909.180811,495.433972 C909.370811,495.949972 909.950811,496.208972 910.470811,496.011972 C910.980811,495.814972 911.240811,495.236972 911.050811,494.720972 C910.560811,493.442972 910.010811,492.187972 909.400811,490.960972 C909.150811,490.466972 908.550811,490.265972 908.060811,490.511972 C907.560811,490.758972 907.360811,491.358972 907.610811,491.853972 M910.650811,500.099972 C910.970811,501.360972 911.240811,502.642972 911.460811,503.938972 C911.560811,504.483972 912.070811,504.850972 912.620811,504.758972 C913.160811,504.665972 913.530811,504.149972 913.440811,503.605972 C913.210811,502.256972 912.930811,500.921972 912.590811,499.604972 C912.450811,499.069972 911.910811,498.746972 911.370811,498.883972 C910.840811,499.019972 910.520811,499.564972 910.650811,500.099972 M912.050811,508.819972 C912.150811,510.122972 912.200811,511.436972 912.210811,512.757972 C912.210811,513.309972 912.660811,513.754972 913.220811,513.750972 C913.770811,513.746972 914.210811,513.295972 914.210811,512.743972 C914.200811,511.379972 914.150811,510.020972 914.050811,508.670972 C914.010811,508.120972 913.530811,507.707972 912.980811,507.747972 C912.420811,507.789972 912.010811,508.268972 912.050811,508.819972 M912.050811,517.689972 C911.960811,518.999972 911.840811,520.311972 911.670811,521.623972 C911.600811,522.171972 911.990811,522.671972 912.540811,522.740972 C913.090811,522.808972 913.590811,522.419972 913.660811,521.871972 C913.820811,520.524972 913.960811,519.175972 914.050811,517.827972 C914.090811,517.276972 913.670811,516.798972 913.120811,516.760972 C912.570811,516.722972 912.090811,517.138972 912.050811,517.689972 M910.900811,526.510972 C910.650811,527.808972 910.370811,529.100972 910.060811,530.383972 C909.930811,530.920972 910.260811,531.460972 910.800811,531.589972 C911.340811,531.718972 911.880811,531.388972 912.010811,530.851972 C912.320811,529.537972 912.610811,528.214972 912.860811,526.885972 C912.970811,526.342972 912.610811,525.818972 912.070811,525.715972 C911.530811,525.611972 911.000811,525.968972 910.900811,526.510972 M908.770811,535.166972 C908.380811,536.438972 907.970811,537.696972 907.540811,538.938972 C907.360811,539.460972 907.630811,540.030972 908.150811,540.213972 C908.670811,540.395972 909.240811,540.121972 909.430811,539.600972 C909.870811,538.330972 910.290811,537.044972 910.680811,535.744972 C910.840811,535.215972 910.540811,534.657972 910.010811,534.497972 C909.480811,534.338972 908.930811,534.637972 908.770811,535.166972 M905.770811,543.571972 C905.260811,544.806972 904.730811,546.018972 904.180811,547.203972 C903.950811,547.704972 904.160811,548.299972 904.670811,548.532972 C905.170811,548.764972 905.760811,548.547972 905.990811,548.046972 C906.560811,546.834972 907.100811,545.595972 907.620811,544.334972 C907.830811,543.823972 907.590811,543.239972 907.080811,543.028972 C906.570811,542.817972 905.980811,543.060972 905.770811,543.571972" id="Fill-2078" transform="translate(886.355811, 479.101938) scale(-1, -1) rotate(19.000000) translate(-886.355811, -479.101938) "></path>
                </g>
            </g>
        </g>
    </g>
</svg>