<?xml version="1.0" encoding="UTF-8"?>
<svg width="119px" height="298px" viewBox="0 0 119 298" version="1.1" xmlns="http://www.w3.org/2000/svg" xmlns:xlink="http://www.w3.org/1999/xlink">
    <!-- Generator: Sketch 52.2 (67145) - http://www.bohemiancoding.com/sketch -->
    <title>Fill 2147</title>
    <desc>Created with Sketch.</desc>
    <g id="Page-1" stroke="none" stroke-width="1" fill="none" fill-rule="evenodd" opacity="0.16">
        <g id="main" transform="translate(-936.000000, -1705.000000)" fill="#EAEAEA">
            <g id="Group-19" transform="translate(0.000000, 1052.000000)">
                <g id="Group-15" transform="translate(100.000000, 0.000000)">
                    <path d="M1042.70434,769.36275 C1041.79534,770.41775 1040.87534,771.48375 1040.06334,772.40275 C1039.69734,772.81675 1039.73734,773.44875 1040.15134,773.81375 C1040.56434,774.17975 1041.19734,774.14075 1041.56234,773.72675 C1042.38534,772.79475 1043.30934,771.72375 1044.21834,770.66975 C1044.57934,770.25175 1044.53334,769.61975 1044.11534,769.25975 C1043.69734,768.89875 1043.06534,768.94475 1042.70434,769.36375 L1042.70434,769.36275 M1036.62134,775.97475 C1035.66034,776.89275 1034.67734,777.79275 1033.67534,778.66975 C1033.26034,779.03375 1033.21834,779.66575 1033.58134,780.08075 C1033.94534,780.49675 1034.57734,780.53875 1034.99234,780.17475 C1036.01734,779.27775 1037.02134,778.35875 1038.00334,777.42075 C1038.40234,777.03875 1038.41734,776.40575 1038.03534,776.00675 C1037.65434,775.60775 1037.02034,775.59275 1036.62134,775.97475 M1029.82934,781.84375 C1028.77934,782.65975 1027.71034,783.44875 1026.62134,784.20875 C1026.16834,784.52475 1026.05734,785.14775 1026.37334,785.60075 C1026.68934,786.05375 1027.31334,786.16475 1027.76634,785.84875 C1028.88334,785.06875 1029.98034,784.25875 1031.05634,783.42375 C1031.49234,783.08475 1031.57134,782.45675 1031.23334,782.02075 C1030.89434,781.58475 1030.26634,781.50575 1029.82934,781.84375 M1022.44634,786.91675 C1021.30834,787.59975 1020.15234,788.24875 1018.97834,788.86175 C1018.48834,789.11775 1018.29834,789.72175 1018.55334,790.21075 C1018.80934,790.70075 1019.41334,790.89075 1019.90334,790.63475 C1021.11434,790.00275 1022.30534,789.33375 1023.47534,788.63175 C1023.94934,788.34675 1024.10234,787.73275 1023.81834,787.25975 C1023.53434,786.78575 1022.91934,786.63275 1022.44634,786.91675 M1014.47834,790.99575 C1013.24434,791.53775 1012.01334,792.06175 1010.78334,792.56675 C1010.27234,792.77575 1010.02834,793.35975 1010.23834,793.87075 C1010.44734,794.38275 1011.03134,794.62675 1011.54234,794.41675 C1012.78834,793.90575 1014.03534,793.37475 1015.28234,792.82775 C1015.78834,792.60575 1016.01734,792.01575 1015.79534,791.50975 C1015.57334,791.00475 1014.98434,790.77375 1014.47834,790.99575 M1006.11634,794.38375 C1004.85634,794.84675 1003.59634,795.28575 1002.33634,795.69975 C1001.81134,795.87175 1001.52534,796.43675 1001.69734,796.96075 C1001.86934,797.48575 1002.43434,797.77175 1002.95834,797.59975 C1004.24334,797.17875 1005.52534,796.73175 1006.80634,796.26075 C1007.32434,796.07075 1007.59034,795.49575 1007.39934,794.97775 C1007.20934,794.45975 1006.63434,794.19275 1006.11634,794.38375 M997.552339,797.13675 C996.264339,797.48675 994.973339,797.80675 993.679339,798.09575 C993.140339,798.21475 992.800339,798.74975 992.920339,799.28875 C993.040339,799.82775 993.574339,800.16775 994.113339,800.04775 C995.440339,799.75175 996.761339,799.42475 998.077339,799.06575 C998.610339,798.92175 998.925339,798.37175 998.780339,797.83875 C998.635339,797.30575 998.085339,796.99175 997.552339,797.13675 M988.786339,799.02175 C987.476339,799.22475 986.161339,799.39275 984.839339,799.52175 C984.290339,799.57575 983.888339,800.06475 983.942339,800.61475 C983.995339,801.16475 984.484339,801.56675 985.034339,801.51275 C986.395339,801.37975 987.747339,801.20675 989.093339,800.99775 C989.639339,800.91275 990.013339,800.40175 989.928339,799.85575 C989.843339,799.31075 989.332339,798.93675 988.786339,799.02175 M979.879339,799.82275 C979.387339,799.83475 978.894339,799.83975 978.399339,799.83975 C977.571339,799.83975 976.740339,799.82375 975.905339,799.79175 C975.353339,799.76975 974.889339,800.19975 974.867339,800.75175 C974.846339,801.30375 975.276339,801.76875 975.828339,801.78975 C976.689339,801.82375 977.545339,801.83975 978.399339,801.83975 C978.909339,801.83975 979.418339,801.83375 979.925339,801.82275 C980.477339,801.80975 980.915339,801.35175 980.902339,800.79975 C980.889339,800.24775 980.432339,799.81075 979.879339,799.82275 M970.954339,799.40475 C969.654339,799.25175 968.344339,799.05875 967.022339,798.82075 C966.479339,798.72275 965.959339,799.08375 965.861339,799.62775 C965.763339,800.17075 966.125339,800.69075 966.668339,800.78875 C968.030339,801.03375 969.380339,801.23375 970.721339,801.39075 C971.270339,801.45575 971.766339,801.06375 971.831339,800.51475 C971.895339,799.96575 971.503339,799.46875 970.954339,799.40475 M962.153339,797.77575 C960.863339,797.45475 959.582339,797.10175 958.313339,796.71475 C957.785339,796.55275 957.225339,796.85075 957.064339,797.37875 C956.903339,797.90775 957.201339,798.46575 957.729339,798.62775 C959.032339,799.02475 960.347339,799.38775 961.671339,799.71675 C962.207339,799.84975 962.749339,799.52275 962.883339,798.98675 C963.016339,798.45075 962.689339,797.90875 962.153339,797.77575 M953.607339,795.09775 C952.366339,794.62175 951.142339,794.11075 949.937339,793.56375 C949.435339,793.33475 948.842339,793.55775 948.613339,794.05975 C948.385339,794.56275 948.607339,795.15575 949.110339,795.38475 C950.352339,795.94875 951.613339,796.47475 952.890339,796.96575 C953.406339,797.16275 953.984339,796.90575 954.182339,796.38975 C954.380339,795.87375 954.122339,795.29575 953.607339,795.09775 M945.502339,791.33275 C944.343339,790.68975 943.208339,790.00875 942.100339,789.29075 C941.637339,788.98975 941.017339,789.12175 940.717339,789.58575 C940.416339,790.04875 940.548339,790.66775 941.012339,790.96875 C942.159339,791.71275 943.333339,792.41675 944.531339,793.08175 C945.014339,793.34975 945.623339,793.17475 945.891339,792.69175 C946.159339,792.20975 945.985339,791.60075 945.502339,791.33275 M938.072339,786.41075 C937.036339,785.59475 936.031339,784.73975 935.060339,783.84475 C934.654339,783.47075 934.021339,783.49575 933.647339,783.90275 C933.272339,784.30875 933.298339,784.94075 933.704339,785.31475 C934.714339,786.24575 935.759339,787.13475 936.834339,787.98175 C937.268339,788.32375 937.897339,788.24875 938.238339,787.81475 C938.580339,787.38075 938.506339,786.75175 938.072339,786.41075 M931.601339,780.31775 C930.733339,779.33675 929.900339,778.31475 929.108339,777.25275 C928.778339,776.80975 928.152339,776.71875 927.709339,777.04875 C927.266339,777.37875 927.175339,778.00575 927.505339,778.44775 C928.331339,779.55575 929.198339,780.62075 930.103339,781.64375 C930.470339,782.05675 931.102339,782.09575 931.515339,781.72975 C931.929339,781.36375 931.967339,780.73175 931.601339,780.31775 M926.389339,773.14875 C925.729339,771.99675 925.145339,770.82375 924.639339,769.64075 C924.423339,769.13275 923.835339,768.89775 923.327339,769.11475 C922.819339,769.33175 922.584339,769.91975 922.801339,770.42675 C923.337339,771.68075 923.955339,772.92475 924.654339,774.14275 C924.929339,774.62275 925.540339,774.78775 926.019339,774.51375 C926.498339,774.23875 926.664339,773.62775 926.389339,773.14875 M923.067339,765.01475 C922.738339,763.72075 922.506339,762.43775 922.372339,761.18575 C922.313339,760.63675 921.821339,760.23875 921.271339,760.29775 C920.722339,760.35675 920.324339,760.84975 920.384339,761.39875 C920.529339,762.74975 920.778339,764.12475 921.128339,765.50675 C921.264339,766.04275 921.808339,766.36575 922.344339,766.22975 C922.879339,766.09475 923.203339,765.54975 923.067339,765.01475 M922.360339,756.36775 C922.508339,755.05175 922.788339,753.80875 923.198339,752.66575 C923.384339,752.14675 923.114339,751.57375 922.594339,751.38775 C922.074339,751.20075 921.502339,751.47075 921.315339,751.99075 C920.848339,753.29475 920.536339,754.68875 920.372339,756.14375 C920.311339,756.69275 920.705339,757.18775 921.254339,757.24975 C921.803339,757.31175 922.298339,756.91675 922.360339,756.36775 M925.531339,748.67175 C926.340339,747.77175 927.297339,747.01475 928.420339,746.41975 C928.908339,746.16075 929.094339,745.55675 928.836339,745.06775 C928.578339,744.57975 927.973339,744.39375 927.485339,744.65175 C926.154339,745.35575 925.004339,746.26475 924.044339,747.33375 C923.675339,747.74475 923.708339,748.37775 924.119339,748.74675 C924.530339,749.11575 925.162339,749.08175 925.531339,748.67175 M932.871339,745.08475 C933.513339,745.00875 934.189339,744.96875 934.899339,744.96875 C935.475339,744.96875 936.073339,744.99475 936.694339,745.04875 C937.244339,745.09675 937.729339,744.68975 937.777339,744.13975 C937.825339,743.58975 937.418339,743.10475 936.868339,743.05675 C936.192339,742.99775 935.536339,742.96875 934.899339,742.96875 C934.115339,742.96875 933.360339,743.01275 932.635339,743.09875 C932.086339,743.16475 931.695339,743.66175 931.760339,744.21075 C931.825339,744.75875 932.322339,745.15075 932.871339,745.08475 M941.480339,745.92175 C941.583339,745.94975 941.686339,745.97775 941.790339,746.00675 C942.971339,746.33375 944.082339,746.73675 945.128339,747.20675 C945.632339,747.43375 946.224339,747.20875 946.450339,746.70575 C946.677339,746.20175 946.452339,745.60975 945.949339,745.38275 C944.809339,744.87075 943.601339,744.43375 942.325339,744.07975 C942.215339,744.04875 942.106339,744.01875 941.998339,743.98975 C941.464339,743.84675 940.916339,744.16375 940.773339,744.69775 C940.630339,745.23075 940.947339,745.77975 941.480339,745.92175 M949.268339,749.65175 C950.305339,750.43275 951.258339,751.29675 952.132339,752.23375 C952.509339,752.63675 953.141339,752.65975 953.545339,752.28275 C953.949339,751.90575 953.971339,751.27275 953.594339,750.86975 C952.644339,749.85075 951.605339,748.90675 950.471339,748.05375 C950.030339,747.72175 949.403339,747.81075 949.071339,748.25175 C948.739339,748.69275 948.827339,749.31975 949.268339,749.65175 M955.063339,756.08575 C955.743339,757.18075 956.351339,758.33375 956.892339,759.53275 C957.119339,760.03575 957.712339,760.25975 958.215339,760.03275 C958.718339,759.80575 958.942339,759.21275 958.715339,758.70975 C958.141339,757.43575 957.492339,756.20575 956.762339,755.03075 C956.471339,754.56175 955.854339,754.41775 955.385339,754.70875 C954.916339,754.99975 954.772339,755.61675 955.063339,756.08575 M958.588339,764.13475 C958.958339,765.38675 959.269339,766.66675 959.526339,767.96475 C959.634339,768.50675 960.160339,768.85875 960.702339,768.75175 C961.243339,768.64475 961.596339,768.11775 961.488339,767.57675 C961.220339,766.22275 960.895339,764.88275 960.507339,763.56875 C960.350339,763.03875 959.794339,762.73675 959.264339,762.89275 C958.735339,763.04875 958.432339,763.60575 958.588339,764.13475 M960.242339,772.86075 C960.371339,774.18175 960.451339,775.50575 960.487339,776.82075 C960.502339,777.37275 960.962339,777.80775 961.514339,777.79375 C962.065339,777.77875 962.501339,777.31875 962.486339,776.76675 C962.449339,775.40675 962.366339,774.03675 962.233339,772.66675 C962.179339,772.11675 961.690339,771.71475 961.140339,771.76875 C960.590339,771.82175 960.189339,772.31075 960.242339,772.86075 M960.416339,781.78375 C960.342339,783.13275 960.225339,784.45575 960.069339,785.73875 C960.003339,786.28775 960.394339,786.78575 960.942339,786.85275 C961.490339,786.91875 961.989339,786.52775 962.055339,785.97975 C962.216339,784.65275 962.337339,783.28675 962.413339,781.89275 C962.444339,781.34175 962.021339,780.86975 961.470339,780.83975 C960.918339,780.80975 960.447339,781.23175 960.416339,781.78375 M959.276339,790.63775 C959.008339,791.94875 958.700339,793.23375 958.352339,794.49575 C958.205339,795.02775 958.518339,795.57875 959.050339,795.72575 C959.582339,795.87175 960.133339,795.55975 960.280339,795.02675 C960.640339,793.72275 960.959339,792.39275 961.236339,791.03775 C961.346339,790.49675 960.997339,789.96775 960.456339,789.85775 C959.915339,789.74675 959.386339,790.09675 959.276339,790.63775 M956.828339,799.21075 C956.363339,800.45775 955.858339,801.67975 955.314339,802.87575 C955.085339,803.37875 955.307339,803.97175 955.810339,804.20075 C956.312339,804.42875 956.905339,804.20675 957.134339,803.70475 C957.698339,802.46575 958.221339,801.19975 958.702339,799.90875 C958.895339,799.39075 958.631339,798.81575 958.114339,798.62275 C957.596339,798.42975 957.021339,798.69375 956.828339,799.21075 M953.064339,807.29275 C952.413339,808.44575 951.723339,809.57275 950.995339,810.67675 C950.691339,811.13775 950.818339,811.75775 951.279339,812.06275 C951.740339,812.36575 952.361339,812.23875 952.665339,811.77775 C953.417339,810.63575 954.131339,809.46975 954.805339,808.27775 C955.077339,807.79675 954.908339,807.18675 954.427339,806.91475 C953.947339,806.64275 953.336339,806.81275 953.064339,807.29275 M948.097339,814.70275 C947.284339,815.74175 946.435339,816.75875 945.553339,817.75375 C945.186339,818.16675 945.224339,818.79875 945.637339,819.16475 C946.051339,819.53175 946.683339,819.49375 947.049339,819.08075 C947.958339,818.05575 948.833339,817.00775 949.672339,815.93575 C950.012339,815.50075 949.936339,814.87175 949.501339,814.53175 C949.066339,814.19075 948.438339,814.26775 948.097339,814.70275 M942.121339,821.35175 C941.177339,822.27475 940.203339,823.17675 939.199339,824.05975 C938.785339,824.42475 938.744339,825.05675 939.109339,825.47075 C939.474339,825.88575 940.105339,825.92675 940.520339,825.56175 C941.549339,824.65575 942.549339,823.72975 943.519339,822.78175 C943.914339,822.39675 943.921339,821.76275 943.535339,821.36875 C943.149339,820.97375 942.516339,820.96575 942.121339,821.35175 M935.358339,827.23675 C934.315339,828.04775 933.247339,828.84175 932.154339,829.61875 C931.703339,829.93775 931.598339,830.56275 931.917339,831.01275 C932.237339,831.46275 932.862339,831.56875 933.312339,831.24875 C934.428339,830.45575 935.520339,829.64475 936.586339,828.81475 C937.022339,828.47575 937.100339,827.84675 936.761339,827.41075 C936.422339,826.97575 935.793339,826.89675 935.358339,827.23675 M928.005339,832.41575 C926.879339,833.14075 925.745339,833.84875 924.602339,834.54075 C924.130339,834.82575 923.978339,835.44075 924.264339,835.91375 C924.550339,836.38675 925.165339,836.53775 925.637339,836.25175 C926.796339,835.55075 927.947339,834.83275 929.088339,834.09675 C929.553339,833.79775 929.686339,833.17875 929.387339,832.71475 C929.088339,832.25075 928.469339,832.11675 928.005339,832.41575 M920.269339,837.05875 C919.100339,837.71175 917.923339,838.34675 916.739339,838.96475 C916.250339,839.22075 916.060339,839.82575 916.316339,840.31475 C916.572339,840.80375 917.176339,840.99375 917.665339,840.73775 C918.866339,840.11075 920.058339,839.46675 921.243339,838.80575 C921.725339,838.53675 921.898339,837.92675 921.629339,837.44475 C921.360339,836.96275 920.751339,836.78975 920.269339,837.05875 M912.258339,841.21175 C911.052339,841.79175 909.839339,842.35475 908.620339,842.90175 C908.116339,843.12775 907.891339,843.71875 908.117339,844.22275 C908.343339,844.72675 908.934339,844.95275 909.439339,844.72675 C910.674339,844.17175 911.902339,843.60175 913.124339,843.01475 C913.622339,842.77575 913.832339,842.17775 913.592339,841.68075 C913.353339,841.18275 912.755339,840.97275 912.258339,841.21175 M904.013339,844.87975 C902.776339,845.38775 901.532339,845.87975 900.283339,846.35775 C899.767339,846.55475 899.509339,847.13175 899.705339,847.64775 C899.903339,848.16375 900.480339,848.42275 900.996339,848.22575 C902.261339,847.74275 903.520339,847.24475 904.773339,846.72975 C905.283339,846.51975 905.528339,845.93575 905.318339,845.42475 C905.108339,844.91375 904.523339,844.66975 904.013339,844.87975 M895.571339,848.07475 C894.308339,848.51375 893.039339,848.93675 891.765339,849.34675 C891.239339,849.51475 890.950339,850.07875 891.119339,850.60375 C891.288339,851.12975 891.851339,851.41875 892.377339,851.25075 C893.666339,850.83675 894.949339,850.40775 896.227339,849.96375 C896.749339,849.78275 897.025339,849.21275 896.844339,848.69075 C896.662339,848.16875 896.093339,847.89275 895.571339,848.07475 M886.967339,850.81175 C885.683339,851.18375 884.394339,851.54175 883.100339,851.88575 C882.566339,852.02775 882.249339,852.57575 882.391339,853.10975 C882.533339,853.64275 883.080339,853.96075 883.614339,853.81875 C884.922339,853.47075 886.225339,853.10875 887.524339,852.73275 C888.055339,852.57875 888.360339,852.02375 888.206339,851.49375 C888.053339,850.96275 887.498339,850.65775 886.967339,850.81175 M878.234339,853.10975 C876.932339,853.41875 875.626339,853.71375 874.317339,853.99575 C873.777339,854.11175 873.434339,854.64375 873.550339,855.18375 C873.666339,855.72375 874.198339,856.06675 874.738339,855.95075 C876.061339,855.66575 877.380339,855.36775 878.695339,855.05575 C879.233339,854.92775 879.565339,854.38875 879.437339,853.85175 C879.310339,853.31475 878.771339,852.98175 878.234339,853.10975 M869.397339,854.98975 C868.082339,855.23775 866.763339,855.47375 865.443339,855.69575 C864.898339,855.78775 864.531339,856.30375 864.623339,856.84875 C864.715339,857.39275 865.231339,857.75975 865.775339,857.66775 C867.109339,857.44375 868.440339,857.20575 869.768339,856.95475 C870.310339,856.85175 870.667339,856.32875 870.565339,855.78675 C870.462339,855.24375 869.939339,854.88675 869.397339,854.98975 M860.481339,856.47175 C859.155339,856.66275 857.828339,856.84175 856.499339,857.00875 C855.951339,857.07675 855.562339,857.57675 855.631339,858.12575 C855.699339,858.67275 856.200339,859.06175 856.747339,858.99275 C858.089339,858.82475 859.429339,858.64475 860.766339,858.45075 C861.313339,858.37275 861.692339,857.86575 861.613339,857.31875 C861.535339,856.77175 861.027339,856.39275 860.481339,856.47175 M851.507339,857.57775 C850.174339,857.71475 848.840339,857.83975 847.504339,857.95375 C846.954339,858.00075 846.546339,858.48475 846.593339,859.03475 C846.640339,859.58475 847.124339,859.99375 847.675339,859.94575 C849.021339,859.83175 850.367339,859.70475 851.712339,859.56675 C852.261339,859.51075 852.661339,859.01975 852.604339,858.46975 C852.548339,857.92075 852.056339,857.52075 851.507339,857.57775 M842.493339,858.32775 C841.154339,858.41275 839.816339,858.48775 838.477339,858.55075 C837.925339,858.57675 837.499339,859.04575 837.526339,859.59775 C837.552339,860.14875 838.021339,860.57475 838.572339,860.54875 C839.922339,860.48475 841.271339,860.40975 842.620339,860.32275 C843.172339,860.28775 843.590339,859.81275 843.554339,859.26075 C843.519339,858.70975 843.044339,858.29175 842.493339,858.32775 M833.453339,858.73975 C832.111339,858.77675 830.770339,858.80275 829.430339,858.81975 C828.878339,858.82575 828.435339,859.27875 828.442339,859.83175 C828.449339,860.38375 828.902339,860.82575 829.454339,860.81975 C830.805339,860.80275 832.156339,860.77575 833.508339,860.73875 C834.060339,860.72375 834.495339,860.26375 834.480339,859.71175 C834.465339,859.15975 834.005339,858.72475 833.453339,858.73975 M824.403339,858.81075 C823.418339,858.79175 822.056339,858.75875 820.369339,858.70575 C819.817339,858.68775 819.356339,859.12175 819.338339,859.67375 C819.321339,860.22575 819.754339,860.68675 820.306339,860.70475 C822.001339,860.75775 823.371339,860.79075 824.364339,860.81075 C824.916339,860.82175 825.372339,860.38275 825.383339,859.83075 C825.394339,859.27775 824.956339,858.82175 824.403339,858.81075 M815.330339,858.51475 C814.075339,858.46075 812.728339,858.39675 811.301339,858.32175 C810.749339,858.29375 810.279339,858.71775 810.250339,859.26875 C810.221339,859.82075 810.645339,860.29075 811.197339,860.31975 C812.630339,860.39475 813.982339,860.45875 815.243339,860.51275 C815.795339,860.53675 816.262339,860.10975 816.286339,859.55775 C816.310339,859.00575 815.882339,858.53875 815.330339,858.51475 M806.267339,858.03375 C804.971339,857.95175 803.627339,857.86275 802.242339,857.76475 C801.691339,857.72575 801.213339,858.14075 801.174339,858.69175 C801.135339,859.24275 801.550339,859.72075 802.101339,859.75975 C803.491339,859.85875 804.840339,859.94875 806.142339,860.02975 C806.693339,860.06375 807.168339,859.64475 807.203339,859.09375 C807.237339,858.54275 806.818339,858.06775 806.267339,858.03375 M797.215339,857.38175 C795.903339,857.27475 794.563339,857.15975 793.198339,857.03675 C792.648339,856.98775 792.161339,857.39275 792.112339,857.94275 C792.062339,858.49275 792.468339,858.97875 793.018339,859.02875 C794.389339,859.15275 795.735339,859.26775 797.053339,859.37475 C797.603339,859.41975 798.086339,859.01075 798.131339,858.45975 C798.176339,857.90975 797.766339,857.42675 797.215339,857.38175 M788.180339,856.55575 C786.861339,856.42175 785.524339,856.27975 784.171339,856.12975 C783.623339,856.06875 783.128339,856.46475 783.067339,857.01275 C783.006339,857.56175 783.402339,858.05675 783.951339,858.11775 C785.309339,858.26875 786.652339,858.41075 787.978339,858.54575 C788.528339,858.60175 789.018339,858.20175 789.074339,857.65175 C789.130339,857.10275 788.730339,856.61175 788.180339,856.55575 M779.167339,855.54275 C777.844339,855.37875 776.511339,855.20675 775.170339,855.02675 C774.623339,854.95275 774.120339,855.33675 774.046339,855.88475 C773.973339,856.43175 774.357339,856.93475 774.904339,857.00875 C776.252339,857.18975 777.592339,857.36275 778.922339,857.52675 C779.470339,857.59475 779.969339,857.20575 780.037339,856.65775 C780.105339,856.10975 779.715339,855.60975 779.167339,855.54275 M770.184339,854.32075 C768.863339,854.12375 767.538339,853.91875 766.211339,853.70475 C765.666339,853.61675 765.153339,853.98675 765.065339,854.53275 C764.976339,855.07775 765.347339,855.59075 765.893339,855.67875 C767.227339,855.89475 768.561339,856.10075 769.889339,856.29875 C770.435339,856.37975 770.944339,856.00275 771.025339,855.45675 C771.107339,854.91075 770.730339,854.40175 770.184339,854.32075 M761.251339,852.86275 C759.929339,852.62675 758.608339,852.38175 757.290339,852.12675 C756.748339,852.02175 756.224339,852.37675 756.119339,852.91875 C756.014339,853.46075 756.369339,853.98575 756.911339,854.09075 C758.238339,854.34675 759.568339,854.59375 760.900339,854.83175 C761.443339,854.92775 761.963339,854.56675 762.060339,854.02275 C762.157339,853.47875 761.795339,852.95975 761.251339,852.86275 M752.355339,851.12275 C751.039339,850.84075 749.730339,850.54875 748.430339,850.24675 C747.892339,850.12175 747.354339,850.45675 747.229339,850.99375 C747.104339,851.53175 747.438339,852.06975 747.976339,852.19475 C749.289339,852.49975 750.610339,852.79475 751.937339,853.07875 C752.477339,853.19375 753.008339,852.84975 753.124339,852.30975 C753.239339,851.76975 752.895339,851.23875 752.355339,851.12275" id="Fill-2147" transform="translate(895.832379, 801.894280) rotate(90.000000) translate(-895.832379, -801.894280) "></path>
                </g>
            </g>
        </g>
    </g>
</svg>