<?xml version="1.0" encoding="UTF-8"?>
<svg width="317px" height="358px" viewBox="0 0 317 358" version="1.1" xmlns="http://www.w3.org/2000/svg" xmlns:xlink="http://www.w3.org/1999/xlink">
    <!-- Generator: Sketch 52.2 (67145) - http://www.bohemiancoding.com/sketch -->
    <title>Fill 1892</title>
    <desc>Created with Sketch.</desc>
    <g id="Page-1" stroke="none" stroke-width="1" fill="none" fill-rule="evenodd" opacity="0.16">
        <g id="main" transform="translate(-757.000000, -2088.000000)" fill="#EAEAEA">
            <g id="Group-19" transform="translate(0.000000, 1052.000000)">
                <g id="Group-15" transform="translate(100.000000, 0.000000)">
                    <path d="M600.038678,1255.46395 C600.680678,1254.43495 601.453678,1253.37695 602.301678,1252.32595 C602.648678,1251.89595 602.581678,1251.26595 602.151678,1250.91995 C601.721678,1250.57295 601.091678,1250.63995 600.745678,1251.06995 C599.858678,1252.16995 599.039678,1253.28795 598.341678,1254.40595 C598.049678,1254.87395 598.192678,1255.49095 598.660678,1255.78395 C599.129678,1256.07595 599.745678,1255.93295 600.038678,1255.46395 M605.553678,1248.64995 C606.490678,1247.66595 607.437678,1246.72295 608.341678,1245.84595 C608.737678,1245.46095 608.746678,1244.82795 608.362678,1244.43195 C607.977678,1244.03495 607.344678,1244.02595 606.948678,1244.40995 C606.030678,1245.30095 605.066678,1246.26195 604.105678,1247.26995 C603.724678,1247.66995 603.739678,1248.30295 604.139678,1248.68395 C604.539678,1249.06495 605.171678,1249.04995 605.553678,1248.64995 M611.955678,1242.42395 C612.219678,1242.17495 612.465678,1241.94295 612.688678,1241.72895 C613.396678,1241.04795 614.118678,1240.36995 614.851678,1239.69595 C615.257678,1239.32295 615.284678,1238.68995 614.910678,1238.28295 C614.537678,1237.87595 613.904678,1237.84995 613.497678,1238.22395 C612.753678,1238.90695 612.022678,1239.59595 611.303678,1240.28595 C611.087678,1240.49395 610.846678,1240.72195 610.585678,1240.96795 C610.182678,1241.34595 610.163678,1241.97895 610.542678,1242.38095 C610.920678,1242.78295 611.553678,1242.80195 611.955678,1242.42395 M618.557678,1236.41495 C619.558678,1235.56195 620.576678,1234.72095 621.610678,1233.89395 C622.042678,1233.54895 622.111678,1232.91995 621.766678,1232.48795 C621.421678,1232.05695 620.792678,1231.98695 620.361678,1232.33195 C619.311678,1233.17195 618.276678,1234.02695 617.260678,1234.89295 C616.840678,1235.25095 616.789678,1235.88195 617.148678,1236.30295 C617.506678,1236.72295 618.137678,1236.77395 618.557678,1236.41495 M625.535678,1230.88195 C626.600678,1230.09995 627.676678,1229.33695 628.764678,1228.59595 C629.220678,1228.28495 629.338678,1227.66295 629.027678,1227.20595 C628.716678,1226.74995 628.094678,1226.63195 627.637678,1226.94295 C626.530678,1227.69795 625.434678,1228.47495 624.351678,1229.26995 C623.906678,1229.59695 623.811678,1230.22295 624.137678,1230.66795 C624.465678,1231.11295 625.090678,1231.20895 625.536678,1230.88195 L625.535678,1230.88195 M632.911678,1225.90995 C634.040678,1225.21795 635.177678,1224.55195 636.320678,1223.91695 C636.803678,1223.64795 636.977678,1223.03895 636.708678,1222.55695 C636.440678,1222.07395 635.831678,1221.89995 635.348678,1222.16895 C634.179678,1222.81895 633.017678,1223.49795 631.866678,1224.20495 C631.395678,1224.49395 631.247678,1225.10995 631.536678,1225.57995 C631.825678,1226.05095 632.440678,1226.19895 632.911678,1225.90995 M640.700678,1221.64595 C641.871678,1221.07595 643.068678,1220.51195 644.288678,1219.95695 C644.791678,1219.72795 645.013678,1219.13495 644.784678,1218.63295 C644.555678,1218.12995 643.962678,1217.90795 643.460678,1218.13695 C642.224678,1218.69895 641.012678,1219.26995 639.825678,1219.84695 C639.328678,1220.08895 639.121678,1220.68695 639.363678,1221.18395 C639.604678,1221.68095 640.203678,1221.88695 640.700678,1221.64595 M648.833678,1217.97495 C650.042678,1217.46995 651.270678,1216.97595 652.511678,1216.49595 C653.026678,1216.29595 653.283678,1215.71695 653.083678,1215.20195 C652.884678,1214.68695 652.305678,1214.43095 651.790678,1214.62995 C650.531678,1215.11695 649.288678,1215.61695 648.062678,1216.12895 C647.552678,1216.34095 647.312678,1216.92695 647.525678,1217.43695 C647.737678,1217.94595 648.323678,1218.18695 648.833678,1217.97495 M657.160678,1214.78795 C658.403678,1214.35495 659.657678,1213.93895 660.919678,1213.54095 C661.446678,1213.37495 661.739678,1212.81295 661.573678,1212.28595 C661.407678,1211.75895 660.845678,1211.46695 660.318678,1211.63295 C659.036678,1212.03695 657.764678,1212.45995 656.503678,1212.89895 C655.981678,1213.07995 655.705678,1213.64995 655.887678,1214.17195 C656.068678,1214.69295 656.638678,1214.96895 657.160678,1214.78795 M665.668678,1212.14295 C666.942678,1211.79595 668.221678,1211.46895 669.504678,1211.16595 C670.041678,1211.03895 670.374678,1210.49995 670.247678,1209.96295 C670.120678,1209.42595 669.581678,1209.09295 669.044678,1209.21995 C667.738678,1209.52795 666.437678,1209.85995 665.142678,1210.21395 C664.609678,1210.35895 664.295678,1210.90895 664.440678,1211.44195 C664.586678,1211.97495 665.135678,1212.28895 665.668678,1212.14295 M674.340678,1210.13995 C675.640678,1209.89595 676.941678,1209.67895 678.238678,1209.49095 C678.785678,1209.41195 679.164678,1208.90495 679.085678,1208.35795 C679.005678,1207.81195 678.498678,1207.43295 677.951678,1207.51195 C676.626678,1207.70395 675.298678,1207.92495 673.972678,1208.17395 C673.429678,1208.27595 673.071678,1208.79795 673.173678,1209.34095 C673.275678,1209.88395 673.797678,1210.24095 674.340678,1210.13995 M683.139678,1208.92395 C684.457678,1208.81095 685.768678,1208.73195 687.071678,1208.68895 C687.622678,1208.66995 688.055678,1208.20795 688.037678,1207.65595 C688.018678,1207.10395 687.556678,1206.67095 687.004678,1206.68995 C685.665678,1206.73395 684.319678,1206.81495 682.968678,1206.93095 C682.418678,1206.97795 682.010678,1207.46295 682.058678,1208.01295 C682.105678,1208.56295 682.589678,1208.97095 683.139678,1208.92395 M691.984678,1208.70395 C693.298678,1208.75795 694.608678,1208.85395 695.898678,1208.99495 C696.448678,1209.05495 696.938678,1208.65795 696.998678,1208.10895 C697.058678,1207.55995 696.658678,1207.06595 696.108678,1207.00695 C694.778678,1206.86095 693.428678,1206.76095 692.066678,1206.70495 C691.514678,1206.68295 691.048678,1207.11195 691.026678,1207.66395 C691.003678,1208.21495 691.432678,1208.68095 691.984678,1208.70395 M700.758678,1209.73495 C701.948678,1209.95695 703.248678,1210.22695 704.638678,1210.54395 C705.178678,1210.66695 705.708678,1210.32995 705.828678,1209.79195 C705.958678,1209.25295 705.618678,1208.71695 705.078678,1208.59395 C703.668678,1208.27095 702.338678,1207.99595 701.128678,1207.76895 C700.588678,1207.66695 700.058678,1208.02495 699.958678,1208.56695 C699.858678,1209.10995 700.218678,1209.63295 700.758678,1209.73495 M709.438678,1211.75495 C710.678678,1212.09795 711.948678,1212.47395 713.228678,1212.88095 C713.758678,1213.04795 714.318678,1212.75695 714.488678,1212.23095 C714.658678,1211.70395 714.368678,1211.14195 713.838678,1210.97495 C712.528678,1210.55895 711.238678,1210.17695 709.968678,1209.82795 C709.438678,1209.67995 708.888678,1209.99295 708.738678,1210.52495 C708.588678,1211.05695 708.908678,1211.60795 709.438678,1211.75495 M717.898678,1214.49995 C719.128678,1214.96695 720.358678,1215.46395 721.548678,1215.99095 C722.048678,1216.21495 722.648678,1215.98595 722.868678,1215.47995 C723.088678,1214.97495 722.858678,1214.38495 722.358678,1214.16195 C721.128678,1213.61895 719.868678,1213.10795 718.608678,1212.62995 C718.088678,1212.43395 717.518678,1212.69395 717.318678,1213.21095 C717.118678,1213.72695 717.378678,1214.30495 717.898678,1214.49995 M725.948678,1218.15495 C727.118678,1218.79895 728.238678,1219.47695 729.278678,1220.18695 C729.728678,1220.49895 730.348678,1220.38195 730.668678,1219.92595 C730.978678,1219.46995 730.858678,1218.84795 730.398678,1218.53595 C729.308678,1217.78395 728.138678,1217.07395 726.918678,1216.40295 C726.428678,1216.13595 725.818678,1216.31295 725.558678,1216.79695 C725.288678,1217.28095 725.468678,1217.88895 725.948678,1218.15495 M732.998678,1223.21795 C733.938678,1224.15095 734.728678,1225.12295 735.348678,1226.12995 C735.648678,1226.59895 736.258678,1226.74295 736.728678,1226.45095 C737.198678,1226.15995 737.348678,1225.54295 737.048678,1225.07395 C736.328678,1223.91395 735.438678,1222.82495 734.408678,1221.79995 C734.018678,1221.41095 733.378678,1221.41295 732.988678,1221.80395 C732.598678,1222.19595 732.608678,1222.82895 732.998678,1223.21795 M736.908678,1230.35595 C736.958678,1230.74895 736.988678,1231.14795 736.988678,1231.55495 C736.988678,1232.32695 736.898678,1233.12595 736.698678,1233.95595 C736.568678,1234.49295 736.898678,1235.03295 737.438678,1235.16095 C737.968678,1235.28995 738.508678,1234.95795 738.638678,1234.42095 C738.878678,1233.44595 738.988678,1232.48795 738.988678,1231.55495 C738.988678,1231.06395 738.958678,1230.57895 738.898678,1230.10195 C738.828678,1229.55395 738.328678,1229.16695 737.778678,1229.23695 C737.228678,1229.30695 736.838678,1229.80795 736.908678,1230.35595 M734.788678,1238.07395 C734.068678,1239.02995 733.168678,1239.86795 732.128678,1240.58695 C731.678678,1240.90095 731.558678,1241.52495 731.878678,1241.97795 C732.188678,1242.43195 732.818678,1242.54495 733.268678,1242.22995 C734.458678,1241.40595 735.518678,1240.42595 736.378678,1239.28595 C736.718678,1238.84695 736.628678,1238.21895 736.198678,1237.88495 C735.758678,1237.54995 735.128678,1237.63495 734.788678,1238.07395 M727.918678,1242.63495 C726.738678,1243.02195 725.488678,1243.30395 724.208678,1243.47895 C723.658678,1243.55395 723.278678,1244.05795 723.358678,1244.60595 C723.428678,1245.15295 723.928678,1245.53495 724.478678,1245.45995 C725.868678,1245.26995 727.238678,1244.96295 728.538678,1244.53595 C729.068678,1244.36395 729.348678,1243.79895 729.178678,1243.27495 C729.008678,1242.74995 728.448678,1242.46395 727.918678,1242.63495 M719.428678,1243.64595 C718.148678,1243.56195 716.868678,1243.37495 715.648678,1243.08695 C715.118678,1242.96095 714.578678,1243.29395 714.448678,1243.83095 C714.318678,1244.36895 714.658678,1244.90695 715.188678,1245.03395 C716.528678,1245.34795 717.908678,1245.55095 719.298678,1245.64195 C719.848678,1245.67695 720.328678,1245.25895 720.368678,1244.70895 C720.398678,1244.15695 719.978678,1243.68195 719.428678,1243.64595 M711.218678,1241.45795 C710.078678,1240.85495 709.068678,1240.13695 708.208678,1239.31195 C707.808678,1238.92795 707.178678,1238.93995 706.798678,1239.33695 C706.408678,1239.73495 706.428678,1240.36795 706.818678,1240.75095 C707.828678,1241.72295 708.998678,1242.54595 710.288678,1243.22495 C710.768678,1243.48395 711.378678,1243.29695 711.638678,1242.80895 C711.898678,1242.32095 711.708678,1241.71595 711.218678,1241.45795 M705.768678,1235.56495 C705.438678,1234.61095 705.258678,1233.57095 705.258678,1232.43095 C705.258678,1232.29095 705.258678,1232.14995 705.268678,1232.00695 C705.288678,1231.45495 704.858678,1230.99095 704.308678,1230.96895 C703.748678,1230.94795 703.288678,1231.37795 703.268678,1231.92995 C703.258678,1232.09795 703.258678,1232.26495 703.258678,1232.43095 C703.258678,1233.78395 703.478678,1235.05295 703.878678,1236.21995 C704.058678,1236.74195 704.628678,1237.01795 705.148678,1236.83695 C705.668678,1236.65595 705.948678,1236.08695 705.768678,1235.56495 M706.208678,1227.42595 C706.618678,1226.21395 707.138678,1225.05895 707.748678,1223.95395 C708.018678,1223.47195 707.848678,1222.86295 707.358678,1222.59495 C706.878678,1222.32695 706.268678,1222.50095 705.998678,1222.98295 C705.328678,1224.18795 704.768678,1225.45395 704.318678,1226.78195 C704.138678,1227.30595 704.418678,1227.87295 704.938678,1228.05095 C705.458678,1228.22895 706.028678,1227.94895 706.208678,1227.42595 M710.488678,1220.03895 C711.308678,1219.07395 712.208678,1218.15595 713.178678,1217.28195 C713.588678,1216.91195 713.618678,1216.27995 713.248678,1215.86895 C712.878678,1215.45895 712.248678,1215.42595 711.838678,1215.79595 C710.808678,1216.72395 709.848678,1217.70395 708.958678,1218.74095 C708.608678,1219.16095 708.658678,1219.79195 709.078678,1220.15095 C709.498678,1220.50895 710.128678,1220.45895 710.488678,1220.03895 M716.998678,1214.28695 C718.058678,1213.55995 719.168678,1212.86895 720.308678,1212.21595 C720.788678,1211.94195 720.958678,1211.33095 720.688678,1210.85195 C720.408678,1210.37195 719.798678,1210.20495 719.318678,1210.47895 C718.128678,1211.15695 716.978678,1211.87695 715.868678,1212.63895 C715.408678,1212.95195 715.298678,1213.57395 715.608678,1214.02995 C715.918678,1214.48495 716.548678,1214.59995 716.998678,1214.28695 M724.668678,1209.97395 C725.858678,1209.42395 727.068678,1208.90595 728.288678,1208.41795 C728.798678,1208.21295 729.048678,1207.63095 728.848678,1207.11895 C728.638678,1206.60595 728.058678,1206.35595 727.548678,1206.55995 C726.288678,1207.06095 725.048678,1207.59295 723.828678,1208.15995 C723.328678,1208.39295 723.108678,1208.98695 723.348678,1209.48795 C723.578678,1209.98895 724.168678,1210.20695 724.668678,1209.97395 M732.928678,1206.72495 C734.188678,1206.30395 735.448678,1205.91195 736.698678,1205.54595 C737.228678,1205.39095 737.538678,1204.83595 737.378678,1204.30595 C737.228678,1203.77595 736.668678,1203.47095 736.138678,1203.62595 C734.858678,1203.99895 733.578678,1204.39795 732.288678,1204.82895 C731.768678,1205.00295 731.488678,1205.56995 731.658678,1206.09395 C731.828678,1206.61695 732.398678,1206.89995 732.928678,1206.72495 M741.478678,1204.26095 C742.798678,1203.93595 744.088678,1203.63795 745.348678,1203.36595 C745.888678,1203.24895 746.228678,1202.71595 746.108678,1202.17695 C745.988678,1201.63695 745.458678,1201.29395 744.918678,1201.41095 C743.648678,1201.68695 742.338678,1201.98895 740.998678,1202.31995 C740.468678,1202.45195 740.138678,1202.99395 740.268678,1203.52995 C740.398678,1204.06595 740.948678,1204.39395 741.478678,1204.26095 M750.208678,1202.39195 C750.448678,1202.34795 750.688678,1202.30495 750.918678,1202.26295 C751.978678,1202.07095 753.048678,1201.88795 754.118678,1201.71395 C754.668678,1201.62495 755.038678,1201.11095 754.948678,1200.56595 C754.858678,1200.02095 754.348678,1199.65095 753.798678,1199.73995 C752.718678,1199.91595 751.638678,1200.10095 750.568678,1200.29495 C750.328678,1200.33695 750.088678,1200.38095 749.848678,1200.42495 C749.308678,1200.52495 748.948678,1201.04695 749.048678,1201.58995 C749.148678,1202.13295 749.668678,1202.49195 750.208678,1202.39195 M759.028678,1200.97995 C760.338678,1200.80095 761.648678,1200.63695 762.968678,1200.48795 C763.518678,1200.42495 763.908678,1199.92995 763.848678,1199.38095 C763.788678,1198.83295 763.288678,1198.43795 762.738678,1198.50095 C761.408678,1198.65195 760.078678,1198.81795 758.758678,1198.99795 C758.208678,1199.07195 757.828678,1199.57595 757.898678,1200.12395 C757.978678,1200.67095 758.478678,1201.05395 759.028678,1200.97995 M767.898678,1199.99795 C769.218678,1199.88695 770.538678,1199.79095 771.858678,1199.71095 C772.408678,1199.67795 772.828678,1199.20395 772.798678,1198.65295 C772.758678,1198.10195 772.288678,1197.68195 771.738678,1197.71495 C770.398678,1197.79495 769.068678,1197.89295 767.728678,1198.00495 C767.178678,1198.05195 766.778678,1198.53595 766.818678,1199.08595 C766.868678,1199.63595 767.348678,1200.04495 767.898678,1199.99795 M776.808678,1199.48995 C778.128678,1199.45295 779.448678,1199.43195 780.768678,1199.42995 C781.328678,1199.42895 781.768678,1198.97995 781.768678,1198.42795 C781.768678,1197.87595 781.318678,1197.42895 780.768678,1197.42995 C779.428678,1197.43195 778.088678,1197.45295 776.748678,1197.49095 C776.198678,1197.50695 775.768678,1197.96795 775.778678,1198.51995 C775.798678,1199.07195 776.258678,1199.50595 776.808678,1199.48995 M785.728678,1199.50595 C787.048678,1199.54995 788.368678,1199.61295 789.678678,1199.69495 C790.228678,1199.72995 790.708678,1199.31095 790.738678,1198.75995 C790.778678,1198.20795 790.358678,1197.73295 789.808678,1197.69895 C788.468678,1197.61495 787.128678,1197.55095 785.788678,1197.50695 C785.238678,1197.48895 784.778678,1197.92095 784.758678,1198.47295 C784.738678,1199.02495 785.168678,1199.48795 785.728678,1199.50595 M794.618678,1200.09995 C795.928678,1200.23395 797.238678,1200.38795 798.548678,1200.56395 C799.088678,1200.63795 799.598678,1200.25495 799.668678,1199.70695 C799.748678,1199.15995 799.358678,1198.65595 798.808678,1198.58195 C797.488678,1198.40295 796.148678,1198.24595 794.818678,1198.10995 C794.268678,1198.05395 793.778678,1198.45395 793.718678,1199.00395 C793.668678,1199.55295 794.068678,1200.04395 794.618678,1200.09995 M803.428678,1201.32995 C804.728678,1201.56295 806.018678,1201.81795 807.308678,1202.09695 C807.848678,1202.21395 808.378678,1201.87095 808.498678,1201.33195 C808.618678,1200.79195 808.268678,1200.25995 807.728678,1200.14295 C806.418678,1199.85795 805.108678,1199.59795 803.778678,1199.36195 C803.238678,1199.26395 802.718678,1199.62595 802.618678,1200.16995 C802.528678,1200.71395 802.888678,1201.23295 803.428678,1201.32995 M812.108678,1203.25695 C812.348678,1203.31895 812.578678,1203.38295 812.808678,1203.44695 C813.858678,1203.73395 814.908678,1204.02495 815.948678,1204.31895 C816.478678,1204.46895 817.028678,1204.15995 817.178678,1203.62895 C817.328678,1203.09695 817.018678,1202.54495 816.488678,1202.39395 C815.438678,1202.09895 814.398678,1201.80695 813.338678,1201.51795 C813.108678,1201.45295 812.868678,1201.38795 812.628678,1201.32495 C812.098678,1201.18195 811.548678,1201.49895 811.398678,1202.03295 C811.258678,1202.56595 811.578678,1203.11495 812.108678,1203.25695 M820.728678,1205.69995 C821.998678,1206.07595 823.278678,1206.45795 824.538678,1206.84495 C825.068678,1207.00695 825.628678,1206.70995 825.788678,1206.18195 C825.948678,1205.65395 825.658678,1205.09495 825.128678,1204.93295 C823.848678,1204.54295 822.578678,1204.15895 821.298678,1203.78095 C820.768678,1203.62495 820.208678,1203.92795 820.048678,1204.45695 C819.898678,1204.98695 820.198678,1205.54295 820.728678,1205.69995 M829.288678,1208.33395 C830.548678,1208.74095 831.808678,1209.15295 833.068678,1209.57295 C833.588678,1209.74795 834.158678,1209.46495 834.338678,1208.94095 C834.508678,1208.41795 834.228678,1207.85095 833.698678,1207.67595 C832.438678,1207.25395 831.168678,1206.83795 829.898678,1206.42995 C829.368678,1206.26095 828.808678,1206.55095 828.638678,1207.07595 C828.468678,1207.60195 828.758678,1208.16495 829.288678,1208.33395 M837.768678,1211.18495 C839.028678,1211.62495 840.268678,1212.07195 841.518678,1212.52795 C842.038678,1212.71795 842.608678,1212.45095 842.798678,1211.93295 C842.988678,1211.41395 842.718678,1210.83995 842.208678,1210.64995 C840.948678,1210.19095 839.698678,1209.74095 838.438678,1209.29795 C837.918678,1209.11495 837.348678,1209.38895 837.158678,1209.90995 C836.978678,1210.43095 837.248678,1211.00195 837.768678,1211.18495 M846.168678,1214.27595 C847.408678,1214.75295 848.638678,1215.23895 849.868678,1215.73295 C850.378678,1215.93895 850.968678,1215.69095 851.168678,1215.17795 C851.378678,1214.66595 851.128678,1214.08395 850.618678,1213.87795 C849.378678,1213.37895 848.138678,1212.88995 846.888678,1212.40995 C846.378678,1212.21195 845.798678,1212.46795 845.598678,1212.98295 C845.398678,1213.49895 845.658678,1214.07795 846.168678,1214.27595 M854.458678,1217.62895 C855.678678,1218.14495 856.898678,1218.67195 858.108678,1219.20795 C858.618678,1219.43095 859.208678,1219.20195 859.428678,1218.69695 C859.648678,1218.19195 859.428678,1217.60195 858.918678,1217.37895 C857.698678,1216.83795 856.468678,1216.30795 855.238678,1215.78695 C854.738678,1215.57195 854.148678,1215.80995 853.928678,1216.31795 C853.718678,1216.82695 853.958678,1217.41295 854.458678,1217.62895 M862.638678,1221.25995 C863.828678,1221.81795 865.028678,1222.38595 866.218678,1222.96595 C866.718678,1223.20695 867.318678,1222.99895 867.558678,1222.50195 C867.798678,1222.00595 867.588678,1221.40695 867.098678,1221.16595 C865.888678,1220.58195 864.688678,1220.00895 863.478678,1219.44695 C862.978678,1219.21295 862.378678,1219.42995 862.148678,1219.93095 C861.918678,1220.43195 862.128678,1221.02595 862.638678,1221.25995 M870.668678,1225.17895 C871.848678,1225.77995 873.018678,1226.39195 874.188678,1227.01495 C874.678678,1227.27495 875.288678,1227.08895 875.548678,1226.60195 C875.798678,1226.11395 875.618678,1225.50895 875.128678,1225.24895 C873.948678,1224.61995 872.768678,1224.00395 871.578678,1223.39795 C871.088678,1223.14595 870.488678,1223.34195 870.228678,1223.83295 C869.978678,1224.32495 870.178678,1224.92795 870.668678,1225.17895 M878.578678,1229.37495 C879.728678,1229.99895 880.898678,1230.63595 882.078678,1231.28595 C882.558678,1231.55295 883.168678,1231.37695 883.438678,1230.89295 C883.698678,1230.40995 883.528678,1229.80195 883.038678,1229.53495 C881.858678,1228.88195 880.688678,1228.24295 879.528678,1227.61595 C879.048678,1227.35295 878.438678,1227.53295 878.178678,1228.01895 C877.918678,1228.50395 878.098678,1229.11095 878.578678,1229.37495 M886.418678,1233.71795 C887.558678,1234.36995 888.708678,1235.03395 889.858678,1235.71095 C890.338678,1235.98995 890.948678,1235.83195 891.228678,1235.35595 C891.508678,1234.87895 891.348678,1234.26695 890.878678,1233.98695 C889.718678,1233.30495 888.558678,1232.63695 887.408678,1231.98095 C886.928678,1231.70695 886.318678,1231.87495 886.038678,1232.35395 C885.768678,1232.83395 885.938678,1233.44495 886.418678,1233.71795 M894.118678,1238.27095 C895.238678,1238.96495 896.358678,1239.66995 897.478678,1240.38795 C897.938678,1240.68695 898.558678,1240.55295 898.858678,1240.08895 C899.158678,1239.62395 899.028678,1239.00595 898.558678,1238.70595 C897.438678,1237.98095 896.298678,1237.26795 895.168678,1236.56895 C894.698678,1236.27895 894.078678,1236.42495 893.788678,1236.89495 C893.498678,1237.36595 893.648678,1237.98195 894.118678,1238.27095 M901.608678,1243.13295 C902.698678,1243.88195 903.788678,1244.64295 904.848678,1245.41795 C905.298678,1245.74195 905.918678,1245.64295 906.248678,1245.19595 C906.568678,1244.74895 906.468678,1244.12395 906.028678,1243.79895 C904.948678,1243.01395 903.848678,1242.24195 902.738678,1241.48295 C902.288678,1241.17095 901.668678,1241.28695 901.348678,1241.74295 C901.038678,1242.19795 901.158678,1242.81995 901.608678,1243.13295 M908.798678,1248.40395 C909.848678,1249.22395 910.868678,1250.05795 911.868678,1250.90595 C912.288678,1251.26295 912.918678,1251.21195 913.278678,1250.78995 C913.628678,1250.36895 913.578678,1249.73795 913.158678,1249.38095 C912.138678,1248.51695 911.098678,1247.66695 910.038678,1246.83295 C909.608678,1246.49095 908.978678,1246.56595 908.638678,1246.99995 C908.298678,1247.43295 908.368678,1248.06195 908.798678,1248.40395 M915.548678,1254.19495 C916.508678,1255.10495 917.448678,1256.02995 918.348678,1256.96895 C918.728678,1257.36795 919.358678,1257.38095 919.758678,1256.99895 C920.158678,1256.61595 920.168678,1255.98395 919.788678,1255.58495 C918.868678,1254.61995 917.908678,1253.67195 916.918678,1252.74095 C916.518678,1252.36195 915.888678,1252.37995 915.508678,1252.78095 C915.128678,1253.18295 915.148678,1253.81595 915.548678,1254.19495 M921.618678,1260.63395 C922.468678,1261.65095 923.268678,1262.68395 924.018678,1263.73395 L924.118678,1263.84295 L924.208678,1263.75595 L924.118678,1263.84295 L924.208678,1263.75595 L924.118678,1263.84295 C924.498678,1264.24095 925.128678,1264.25295 925.528678,1263.86995 C925.928678,1263.48595 925.938678,1262.85395 925.558678,1262.45595 L925.558678,1262.45495 L924.838678,1263.14895 L925.648678,1262.56395 C924.858678,1261.47495 924.028678,1260.40695 923.158678,1259.35695 C922.808678,1258.93195 922.178678,1258.87295 921.748678,1259.22495 C921.328678,1259.57795 921.268678,1260.20895 921.618678,1260.63395 M927.358678,1267.55495 C928.088678,1268.44295 928.918678,1269.47995 929.828678,1270.65495 C930.158678,1271.09295 930.788678,1271.17495 931.228678,1270.83895 C931.668678,1270.50195 931.748678,1269.87495 931.408678,1269.43695 C930.498678,1268.24195 929.648678,1267.18695 928.898678,1266.28195 C928.548678,1265.85595 927.918678,1265.79495 927.488678,1266.14695 C927.068678,1266.49895 927.008678,1267.12895 927.358678,1267.55495 M932.758678,1274.64395 C933.488678,1275.67295 934.238678,1276.76595 934.998678,1277.91895 C935.298678,1278.37995 935.918678,1278.50695 936.378678,1278.20395 C936.838678,1277.89995 936.968678,1277.27995 936.668678,1276.81795 C935.888678,1275.64695 935.128678,1274.53595 934.398678,1273.49095 C934.078678,1273.03995 933.458678,1272.93195 932.998678,1273.25095 C932.548678,1273.56895 932.438678,1274.19295 932.758678,1274.64395 M937.638678,1282.10795 C938.298678,1283.20995 938.958678,1284.35295 939.618678,1285.53395 C939.888678,1286.01595 940.498678,1286.18895 940.978678,1285.91995 C941.468678,1285.65095 941.638678,1285.04195 941.368678,1284.55995 C940.698678,1283.35795 940.018678,1282.19595 939.348678,1281.07595 C939.058678,1280.60295 938.448678,1280.44995 937.978678,1280.73495 C937.498678,1281.01995 937.348678,1281.63495 937.638678,1282.10795 M941.938678,1289.90695 C942.518678,1291.06695 943.088678,1292.25695 943.648678,1293.47495 C943.878678,1293.97695 944.468678,1294.19895 944.968678,1293.96895 C945.468678,1293.73995 945.698678,1293.14695 945.468678,1292.64495 C944.898678,1291.40395 944.318678,1290.19095 943.728678,1289.00995 C943.478678,1288.51595 942.878678,1288.31695 942.378678,1288.56395 C941.888678,1288.81195 941.688678,1289.41295 941.938678,1289.90695 M945.588678,1298.01895 C946.068678,1299.22995 946.538678,1300.46395 946.978678,1301.71795 C947.158678,1302.23895 947.728678,1302.51395 948.248678,1302.33095 C948.768678,1302.14795 949.048678,1301.57695 948.858678,1301.05595 C948.408678,1299.77395 947.938678,1298.51495 947.448678,1297.27795 C947.238678,1296.76595 946.658678,1296.51495 946.148678,1296.71995 C945.628678,1296.92395 945.378678,1297.50595 945.588678,1298.01895 M948.478678,1306.41695 C948.848678,1307.67095 949.178678,1308.94195 949.488678,1310.22895 C949.618678,1310.76595 950.158678,1311.09795 950.698678,1310.96895 C951.228678,1310.83995 951.558678,1310.30095 951.438678,1309.76395 C951.118678,1308.44495 950.778678,1307.14295 950.398678,1305.85995 C950.248678,1305.32995 949.688678,1305.02395 949.158678,1305.17795 C948.628678,1305.33195 948.328678,1305.88595 948.478678,1306.41695 M950.488678,1315.05195 C950.668678,1316.11795 950.838678,1317.19295 950.978678,1318.27695 C951.008678,1318.49295 951.028678,1318.70395 951.038678,1318.90895 C951.088678,1319.45895 951.568678,1319.87095 952.118678,1319.82695 C952.668678,1319.78395 953.078678,1319.30295 953.038678,1318.75195 C953.018678,1318.51295 952.988678,1318.26895 952.958678,1318.02095 C952.818678,1316.90795 952.648678,1315.80395 952.458678,1314.70995 C952.368678,1314.16495 951.848678,1313.80095 951.298678,1313.89595 C950.758678,1313.99095 950.388678,1314.50795 950.488678,1315.05195 M950.258678,1323.11495 C949.668678,1324.05495 948.818678,1324.64695 947.698678,1324.95095 C947.158678,1325.09195 946.838678,1325.63895 946.988678,1326.17295 C947.128678,1326.70695 947.668678,1327.02495 948.208678,1326.88495 C949.748678,1326.48195 951.098678,1325.56095 951.958678,1324.17295 C952.248678,1323.70395 952.108678,1323.08695 951.638678,1322.79495 C951.168678,1322.50295 950.548678,1322.64595 950.258678,1323.11495 M943.308678,1324.72595 C942.218678,1324.40795 941.058678,1323.90795 939.888678,1323.22395 C939.408678,1322.94595 938.798678,1323.10695 938.518678,1323.58395 C938.238678,1324.06095 938.398678,1324.67395 938.878678,1324.95195 C940.178678,1325.70995 941.488678,1326.27695 942.748678,1326.64595 C943.278678,1326.79995 943.838678,1326.49595 943.988678,1325.96495 C944.148678,1325.43495 943.838678,1324.87995 943.308678,1324.72595 M936.088678,1320.36795 C935.188678,1319.53495 934.318678,1318.59395 933.478678,1317.54595 C933.138678,1317.11395 932.508678,1317.04295 932.078678,1317.38695 C931.638678,1317.73195 931.568678,1318.36095 931.918678,1318.79295 C932.808678,1319.91695 933.758678,1320.92995 934.718678,1321.83095 C935.128678,1322.20695 935.758678,1322.18495 936.138678,1321.78095 C936.508678,1321.37695 936.488678,1320.74395 936.088678,1320.36795 M930.798678,1313.54195 C930.188678,1312.45595 929.628678,1311.29495 929.108678,1310.05895 C928.898678,1309.54795 928.318678,1309.30595 927.808678,1309.51795 C927.298678,1309.72895 927.048678,1310.31395 927.268678,1310.82395 C927.808678,1312.13295 928.408678,1313.36495 929.048678,1314.51895 C929.318678,1315.00095 929.928678,1315.17295 930.418678,1314.90195 C930.898678,1314.63295 931.068678,1314.02295 930.798678,1313.54195 M927.558678,1305.46295 C927.238678,1304.24995 926.968678,1302.98195 926.748678,1301.65795 C926.658678,1301.11295 926.148678,1300.74295 925.608678,1300.83295 C925.058678,1300.92195 924.688678,1301.43595 924.778678,1301.98095 C925.008678,1303.36795 925.288678,1304.69995 925.628678,1305.97595 C925.768678,1306.50995 926.318678,1306.82795 926.848678,1306.68595 C927.388678,1306.54395 927.708678,1305.99695 927.558678,1305.46295 M926.238678,1296.81195 C926.198678,1295.98795 926.168678,1295.14595 926.168678,1294.28695 C926.168678,1293.82995 926.178678,1293.36895 926.188678,1292.90295 C926.208678,1292.35095 925.768678,1291.89095 925.218678,1291.87595 C924.668678,1291.86095 924.208678,1292.29595 924.188678,1292.84795 C924.178678,1293.33295 924.168678,1293.81195 924.168678,1294.28695 C924.168678,1295.18095 924.198678,1296.05695 924.238678,1296.91595 C924.268678,1297.46695 924.738678,1297.89095 925.288678,1297.86195 C925.838678,1297.83295 926.268678,1297.36295 926.238678,1296.81195 M926.548678,1288.02195 C926.688678,1286.76095 926.888678,1285.46795 927.128678,1284.14195 C927.218678,1283.59895 926.858678,1283.07895 926.318678,1282.97995 C925.778678,1282.88095 925.258678,1283.24195 925.158678,1283.78495 C924.908678,1285.15095 924.708678,1286.48695 924.558678,1287.79095 C924.498678,1288.33895 924.888678,1288.83595 925.438678,1288.89995 C925.988678,1288.96395 926.478678,1288.57095 926.548678,1288.02195 M928.178678,1279.34495 C928.488678,1278.10795 928.848678,1276.84595 929.248678,1275.55895 C929.418678,1275.03195 929.118678,1274.47095 928.588678,1274.30695 C928.068678,1274.14295 927.508678,1274.43695 927.338678,1274.96395 C926.928678,1276.28295 926.568678,1277.57795 926.238678,1278.84895 C926.098678,1279.38395 926.428678,1279.92895 926.958678,1280.06595 C927.498678,1280.20295 928.038678,1279.87995 928.178678,1279.34495 M930.848678,1270.89995 C931.298678,1269.69895 931.788678,1268.47695 932.318678,1267.23595 C932.528678,1266.72795 932.298678,1266.14095 931.788678,1265.92495 C931.278678,1265.70995 930.688678,1265.94795 930.478678,1266.45595 C929.938678,1267.72195 929.438678,1268.96895 928.978678,1270.19695 C928.788678,1270.71395 929.048678,1271.29095 929.568678,1271.48495 C930.078678,1271.67895 930.658678,1271.41695 930.848678,1270.89995 M934.348678,1262.73695 C934.908678,1261.57495 935.498678,1260.39695 936.118678,1259.20295 C936.378678,1258.71295 936.188678,1258.10895 935.698678,1257.85295 C935.208678,1257.59795 934.608678,1257.78695 934.348678,1258.27695 C933.718678,1259.48995 933.118678,1260.68895 932.548678,1261.87195 C932.308678,1262.36995 932.518678,1262.96695 933.018678,1263.20595 C933.508678,1263.44495 934.108678,1263.23495 934.348678,1262.73695 M938.498678,1254.86495 C939.138678,1253.74195 939.808678,1252.60695 940.518678,1251.45795 C940.798678,1250.98595 940.658678,1250.37095 940.178678,1250.08295 C939.708678,1249.79495 939.098678,1249.94295 938.808678,1250.41495 C938.098678,1251.57895 937.418678,1252.73095 936.758678,1253.87095 C936.488678,1254.34995 936.658678,1254.96095 937.128678,1255.23595 C937.608678,1255.50995 938.218678,1255.34395 938.498678,1254.86495 M943.168678,1247.27495 C943.878678,1246.18995 944.618678,1245.09495 945.388678,1243.98795 C945.698678,1243.53295 945.588678,1242.90995 945.128678,1242.59595 C944.678678,1242.28195 944.048678,1242.39595 943.738678,1242.84995 C942.968678,1243.96995 942.218678,1245.07895 941.498678,1246.17695 C941.188678,1246.63895 941.318678,1247.25895 941.778678,1247.56195 C942.248678,1247.86495 942.868678,1247.73695 943.168678,1247.27495 M948.258678,1239.94995 C949.028678,1238.90095 949.818678,1237.84195 950.638678,1236.77395 C950.978678,1236.33595 950.888678,1235.70795 950.458678,1235.37295 C950.018678,1235.03695 949.388678,1235.11995 949.048678,1235.55895 C948.228678,1236.63695 947.428678,1237.70695 946.648678,1238.76695 C946.318678,1239.21295 946.418678,1239.83895 946.858678,1240.16495 C947.308678,1240.49195 947.938678,1240.39495 948.258678,1239.94995 M953.698678,1232.87095 C954.518678,1231.85395 955.358678,1230.82995 956.218678,1229.79795 C956.568678,1229.37395 956.518678,1228.74295 956.088678,1228.38895 C955.668678,1228.03595 955.038678,1228.09295 954.678678,1228.51695 C953.818678,1229.55895 952.968678,1230.59195 952.148678,1231.61795 C951.798678,1232.04795 951.868678,1232.67795 952.298678,1233.02295 C952.728678,1233.36895 953.358678,1233.30095 953.698678,1232.87095 M959.438678,1226.01695 C960.298678,1225.03095 961.168678,1224.03895 962.068678,1223.03895 C962.438678,1222.62795 962.398678,1221.99595 961.988678,1221.62695 C961.578678,1221.25795 960.948678,1221.29195 960.578678,1221.70295 C959.678678,1222.71095 958.788678,1223.71195 957.928678,1224.70495 C957.568678,1225.12195 957.608678,1225.75295 958.028678,1226.11595 C958.448678,1226.47795 959.078678,1226.43395 959.438678,1226.01695 M965.418678,1219.37195 C966.308678,1218.41395 967.218678,1217.44995 968.148678,1216.47995 C968.528678,1216.08095 968.518678,1215.44795 968.118678,1215.06595 C967.718678,1214.68495 967.088678,1214.69795 966.708678,1215.09795 C965.768678,1216.07395 964.858678,1217.04495 963.958678,1218.00895 C963.578678,1218.41395 963.598678,1219.04595 964.008678,1219.42195 C964.408678,1219.79895 965.048678,1219.77595 965.418678,1219.37195 M971.618678,1212.91695 C972.538678,1211.98495 973.468678,1211.04795 974.428678,1210.10495 C974.818678,1209.71695 974.828678,1209.08395 974.438678,1208.69095 C974.048678,1208.29795 973.418678,1208.29395 973.018678,1208.68195 C972.058678,1209.62995 971.118678,1210.57295 970.188678,1211.51095 C969.798678,1211.90395 969.808678,1212.53695 970.198678,1212.92495 C970.588678,1213.31295 971.228678,1213.30895 971.618678,1212.91695 M977.988678,1206.63695 C978.938678,1205.72895 979.898678,1204.81695 980.878678,1203.89895 C981.278678,1203.52095 981.298678,1202.88795 980.918678,1202.48595 C980.548678,1202.08295 979.908678,1202.06295 979.508678,1202.43995 C978.528678,1203.36295 977.558678,1204.28095 976.608678,1205.19395 C976.208678,1205.57595 976.198678,1206.20895 976.578678,1206.60795 C976.958678,1207.00695 977.588678,1207.01895 977.988678,1206.63695 M984.528678,1200.51995 C985.498678,1199.63395 986.478678,1198.74395 987.478678,1197.84895 C987.888678,1197.48095 987.918678,1196.84895 987.558678,1196.43695 C987.188678,1196.02595 986.558678,1195.99095 986.138678,1196.35995 C985.138678,1197.25895 984.148678,1198.15295 983.178678,1199.04295 C982.768678,1199.41595 982.738678,1200.04895 983.108678,1200.45595 C983.488678,1200.86395 984.118678,1200.89195 984.528678,1200.51995 M991.198678,1194.55195 C992.188678,1193.68695 993.198678,1192.81795 994.208678,1191.94395 C994.628678,1191.58495 994.678678,1190.95295 994.318678,1190.53395 C993.958678,1190.11495 993.328678,1190.06795 992.908678,1190.42695 C991.888678,1191.30495 990.878678,1192.17695 989.888678,1193.04595 C989.468678,1193.40995 989.428678,1194.04195 989.788678,1194.45795 C990.158678,1194.87295 990.788678,1194.91495 991.198678,1194.55195 M997.998678,1188.72295 C999.008678,1187.87695 1000.02868,1187.02695 1001.05868,1186.17395 C1001.48868,1185.82195 1001.54868,1185.19195 1001.19868,1184.76595 C1000.84868,1184.33995 1000.21868,1184.27995 999.788678,1184.63195 C998.748678,1185.48895 997.728678,1186.34195 996.718678,1187.19195 C996.298678,1187.54695 996.238678,1188.17795 996.598678,1188.59995 C996.948678,1189.02295 997.578678,1189.07795 997.998678,1188.72295 M1004.91868,1183.02295 C1005.93868,1182.19495 1006.96868,1181.36395 1008.01868,1180.52895 C1008.44868,1180.18395 1008.51868,1179.55495 1008.17868,1179.12395 C1007.83868,1178.69095 1007.20868,1178.61995 1006.76868,1178.96495 C1005.71868,1179.80295 1004.67868,1180.63695 1003.65868,1181.46895 C1003.22868,1181.81595 1003.15868,1182.44595 1003.50868,1182.87495 C1003.85868,1183.30395 1004.48868,1183.37095 1004.91868,1183.02295 M1011.92868,1177.44295 C1012.95868,1176.63195 1014.00868,1175.81795 1015.06868,1174.99995 C1015.50868,1174.66295 1015.58868,1174.03495 1015.24868,1173.59695 C1014.91868,1173.15995 1014.28868,1173.07895 1013.84868,1173.41595 C1012.78868,1174.23695 1011.73868,1175.05395 1010.69868,1175.86795 C1010.25868,1176.20895 1010.17868,1176.83695 1010.51868,1177.27195 C1010.85868,1177.70695 1011.48868,1177.78395 1011.92868,1177.44395 L1011.92868,1177.44295 M1019.02868,1171.97595 C1020.07868,1171.18095 1021.13868,1170.38195 1022.20868,1169.58095 C1022.64868,1169.24995 1022.73868,1168.62395 1022.40868,1168.18095 C1022.07868,1167.73895 1021.45868,1167.64795 1021.00868,1167.97895 C1019.93868,1168.78295 1018.86868,1169.58395 1017.81868,1170.38195 C1017.37868,1170.71595 1017.28868,1171.34295 1017.62868,1171.78295 C1017.95868,1172.22395 1018.58868,1172.30995 1019.02868,1171.97595 M1026.20868,1166.61495 C1027.26868,1165.83395 1028.34868,1165.04995 1029.42868,1164.26395 C1029.87868,1163.93995 1029.96868,1163.31395 1029.64868,1162.86695 C1029.32868,1162.41995 1028.69868,1162.32095 1028.24868,1162.64595 C1027.16868,1163.43395 1026.08868,1164.21995 1025.02868,1165.00395 C1024.57868,1165.33095 1024.48868,1165.95695 1024.80868,1166.40195 C1025.13868,1166.84695 1025.76868,1166.94195 1026.20868,1166.61495 M1033.46868,1161.35195 C1034.53868,1160.58495 1035.61868,1159.81495 1036.71868,1159.04295 C1037.16868,1158.72395 1037.27868,1158.09995 1036.95868,1157.64995 C1036.63868,1157.19795 1036.00868,1157.09095 1035.55868,1157.40995 C1034.46868,1158.18395 1033.37868,1158.95595 1032.30868,1159.72495 C1031.85868,1160.04695 1031.74868,1160.67095 1032.06868,1161.11995 C1032.39868,1161.56995 1033.01868,1161.67295 1033.46868,1161.35195" id="Fill-1892" transform="translate(817.666218, 1242.072131) rotate(-40.000000) translate(-817.666218, -1242.072131) "></path>
                </g>
            </g>
        </g>
    </g>
</svg>