<?xml version="1.0" encoding="UTF-8"?>
<svg width="30px" height="27px" viewBox="0 0 30 27" version="1.1" xmlns="http://www.w3.org/2000/svg" xmlns:xlink="http://www.w3.org/1999/xlink">
    <!-- Generator: Sketch 52.2 (67145) - http://www.bohemiancoding.com/sketch -->
    <title>graduation_cap</title>
    <desc>Created with Sketch.</desc>
    <g id="Page-1" stroke="none" stroke-width="1" fill="none" fill-rule="evenodd">
        <g id="main" transform="translate(-388.000000, -886.000000)" fill="#FFFFFF">
            <g id="Group-20" transform="translate(100.000000, 809.000000)">
                <g id="Group-7" transform="translate(0.000000, 48.000000)">
                    <g id="graduation_cap" transform="translate(288.000000, 29.000000)">
                        <polygon id="Path" points="15.472 0.12 15 1 15 8 29 8 29.462 7.114"></polygon>
                        <polygon id="Path" points="14.528 0.12 15 1 15 8 1 8 0.538 7.114"></polygon>
                        <polygon id="Path" points="14.528 15.88 15 15 15 8 1 8 0.538 8.886"></polygon>
                        <polygon id="Path" points="15.472 15.88 15 15 15 8 29 8 29.462 8.886"></polygon>
                        <circle id="Oval" cx="29" cy="8" r="1"></circle>
                        <circle id="Oval" cx="1" cy="8" r="1"></circle>
                        <circle id="Oval" cx="15" cy="15" r="1"></circle>
                        <circle id="Oval" cx="15" cy="1" r="1"></circle>
                        <g id="Group" transform="translate(6.000000, 11.000000)">
                            <path d="M10.366,6.669 C10.282,6.711 10.197,6.746 10.111,6.775 C9.749,6.924 9.377,7 9,7 C8.624,7 8.253,6.925 7.893,6.776 C7.806,6.747 7.719,6.711 7.634,6.668 L0,2.852 L0,7 C0,9.761 4.029,12 9,12 C13.971,12 18,9.761 18,7 L18,2.852 L10.366,6.669 Z" id="Path"></path>
                            <path d="M21,1.353 L21,12 C21,12.553 21.448,13 22,13 C22.552,13 23,12.553 23,12 L23,0.353 L21,1.353 Z" id="Path"></path>
                        </g>
                        <path d="M30,23 C30,24.105 28,27 28,27 C28,27 26,24.105 26,23 C26,21.895 26.895,21 28,21 C29.105,21 30,21.895 30,23 Z" id="Path"></path>
                    </g>
                </g>
            </g>
        </g>
    </g>
</svg>