<?xml version="1.0" encoding="UTF-8"?>
<svg width="26px" height="24px" viewBox="0 0 26 24" version="1.1" xmlns="http://www.w3.org/2000/svg" xmlns:xlink="http://www.w3.org/1999/xlink">
    <!-- Generator: Sketch 52.2 (67145) - http://www.bohemiancoding.com/sketch -->
    <title>paper_money</title>
    <desc>Created with Sketch.</desc>
    <g id="Page-1" stroke="none" stroke-width="1" fill="none" fill-rule="evenodd">
        <g id="main" transform="translate(-1122.000000, -886.000000)">
            <g id="Group-20" transform="translate(100.000000, 809.000000)">
                <g id="Group-7" transform="translate(0.000000, 48.000000)">
                    <g id="paper_money" transform="translate(1022.000000, 29.000000)">
                        <path d="M2,5 L24,5" id="Path" stroke="#FFFFFF" stroke-width="2" stroke-linecap="round"></path>
                        <path d="M4,1 L22,1" id="Path" stroke="#FFFFFF" stroke-width="2" stroke-linecap="round"></path>
                        <path d="M24,23 L2,23 C1.448,23 1,22.552 1,22 L1,10 C1,9.448 1.448,9 2,9 L24,9 C24.552,9 25,9.448 25,10 L25,22 C25,22.552 24.552,23 24,23 Z" id="Path" stroke="#FFFFFF" stroke-width="2" stroke-linecap="round"></path>
                        <circle id="Oval" fill="#FFFFFF" cx="24" cy="10" r="2"></circle>
                        <circle id="Oval" fill="#FFFFFF" cx="2" cy="10" r="2"></circle>
                        <circle id="Oval" fill="#FFFFFF" cx="2" cy="22" r="2"></circle>
                        <circle id="Oval" fill="#FFFFFF" cx="24" cy="22" r="2"></circle>
                        <circle id="Oval" fill="#FFFFFF" cx="21" cy="16" r="1"></circle>
                        <circle id="Oval" fill="#FFFFFF" cx="5" cy="16" r="1"></circle>
                        <path d="M10.514,20 L15.486,20 C16.402,19.175 17,17.922 17,16.5 C17,14.015 15.209,12 13,12 C10.791,12 9,14.015 9,16.5 C9,17.922 9.598,19.175 10.514,20 Z" id="Path" fill="#FFFFFF"></path>
                    </g>
                </g>
            </g>
        </g>
    </g>
</svg>