<?xml version="1.0" encoding="UTF-8"?>
<svg width="30px" height="24px" viewBox="0 0 30 24" version="1.1" xmlns="http://www.w3.org/2000/svg" xmlns:xlink="http://www.w3.org/1999/xlink">
    <!-- Generator: Sketch 52.2 (67145) - http://www.bohemiancoding.com/sketch -->
    <title>people</title>
    <desc>Created with Sketch.</desc>
    <g id="Page-1" stroke="none" stroke-width="1" fill="none" fill-rule="evenodd">
        <g id="main" transform="translate(-753.000000, -886.000000)" fill="#FFFFFF">
            <g id="Group-20" transform="translate(100.000000, 809.000000)">
                <g id="Group-7" transform="translate(0.000000, 48.000000)">
                    <g id="people" transform="translate(653.000000, 29.000000)">
                        <path d="M17,17.263 L17,15.579 C17,15.579 18.568,14.101 18.682,13.093 C18.682,13.093 19.5,12.528 19.5,11.515 C19.5,10.813 19.187,10.707 19.187,10.707 C19.187,10.707 19.75,9.638 19.75,8.618 C19.75,6.573 18.724,5 17,5 C17,5 16.268,4 15,4 C12.308,4 10.125,5.622 10.125,8.524 C10.125,9.751 10.813,10.707 10.813,10.707 C10.813,10.707 10.5,10.86 10.5,11.515 C10.5,12.788 11.318,13.093 11.318,13.093 C11.432,14.101 13,15.579 13,15.579 L13,17.263 C12.158,19.789 7,18.125 7,24 L23,24 C23,18.105 17.842,19.789 17,17.263 Z" id="Path"></path>
                        <path d="M21.75,8.618 C21.75,9.353 21.578,10.059 21.392,10.607 C21.461,10.878 21.5,11.18 21.5,11.515 C21.5,13.985 19,16.449 19,16.449 C19.543,16.686 21.28,17.569 21.99,18 L30,18 C30,12.75 25.737,14.25 25,12 L25,10.5 C25.332,10.333 26.122,9.184 26.222,8.286 C26.482,8.266 27,7.629 27,7.06 C27,6.491 26.82,6.253 26.663,6.161 C26.663,6.161 27,5.409 27,4.5 C27,2.679 26.508,1 25,1 C25,1 24.567,0 23,0 C20.777,0 19.412,1.529 19.082,3.533 C20.698,4.399 21.75,6.267 21.75,8.618 Z" id="Path"></path>
                        <path d="M11,16.392 C10.457,15.812 9.673,14.81 9.388,14.051 C8.764,13.738 8.237,13.369 8,12.751 L8,11.743 C8.19,11.743 8.751,11.699 8.948,11.655 C8.502,10.968 8.125,9.402 8.125,8.524 C8.125,6.291 9.086,4.454 10.681,3.303 C10.2,1.462 9.132,0 6.601,0 C5.687,0 5,1 5,1 C-0.235,1 2.654,9.355 1.116,10.587 C1.116,10.587 2.058,11.754 5,11.754 L5,12.752 C4.187,14.87 0,14.087 0,18 L8.023,18 C8.727,17.574 11,16.392 11,16.392 Z" id="Path"></path>
                    </g>
                </g>
            </g>
        </g>
    </g>
</svg>